<?xml version="1.0" standalone="no"?>
<!DOCTYPE svg PUBLIC "-//W3C//DTD SVG 1.1//EN" "http://www.w3.org/Graphics/SVG/1.1/DTD/svg11.dtd" >
<svg>
<metadata>
Created by FontForge 20110222 at Wed Jun  4 16:10:25 2014
 By deploy user
Copyright (c) 1988, 1990, 1993, 2003 Linotype Library GmbH, www.linotype.com. All rights reserved. Copyright (c) 1988, 1990, 1993 Adobe Systems Incorporated. All Rights Reserved.
</metadata>
<defs>
<font id="HelveticaNeueLTPro-It" horiz-adv-x="556" >
  <font-face 
    font-family="HelveticaNeueLT Pro 55 Roman"
    font-weight="400"
    font-style="italic"
    font-stretch="normal"
    units-per-em="1000"
    panose-1="2 11 6 4 2 2 2 9 2 4"
    ascent="714"
    descent="-286"
    x-height="517"
    cap-height="714"
    bbox="-166 -214 1106 973"
    underline-thickness="50"
    underline-position="-50"
    slope="-12"
    unicode-range="U+000D-FB02"
  />
<missing-glyph horiz-adv-x="512" 
d="M222 117h56v67h-56v-67zM225 234h46q0 52 6 72q6 19 43 52q37 34 50 60t13 60q0 59 -35 95t-89 36q-56 0 -92 -34t-43 -103l50 -8q11 95 82 95q31 0 53.5 -24.5t22.5 -60.5q0 -20 -9.5 -37t-40.5 -46q-31 -31 -46 -59q-13 -25 -13 -81zM462 50h-412v617h412v-617z
M512 718h-512v-718h512v718z" />
    <glyph glyph-name="IJ" unicode="IJ" horiz-adv-x="766" 
d="M7 0l150 714h95l-150 -714h-95zM772 714l-113 -538q-22 -98 -71.5 -145.5t-151.5 -47.5q-89 0 -143.5 40t-54.5 112q0 49 9 99h96q-9 -42 -10 -74q0 -97 105 -97q34 0 59 13.5t39.5 40t22.5 50t15 58.5l104 489h94z" />
    <glyph glyph-name="ij" unicode="ij" horiz-adv-x="445" 
d="M230 714l-22 -104h-86l22 104h86zM-5 0l108 517h85l-108 -517h-85zM453 714l-22 -104h-86l22 104h86zM103 -192l15 75q22 -6 33 -6q26 0 37.5 19.5t24.5 77.5l113 543h85l-130 -614q-24 -101 -122 -101q-33 0 -56 6z" />
    <glyph glyph-name="napostrophe" unicode="&#x22;n" horiz-adv-x="581" 
d="M20 0l109 517h82l-16 -78h2q66 90 184 90q73 0 108.5 -32t35.5 -101q0 -34 -15 -101l-63 -295h-85l66 302q1 6 4.5 24t5.5 33t2 23q0 35 -25 53.5t-65 18.5q-73 0 -128 -60q-37 -32 -57 -108l-60 -286h-85zM96 714l19 88h111q-14 -79 -18 -91q-5 -17 -13 -29
q-23 -39 -101 -40l8 35q21 5 30.5 12t15.5 25h-52z" />
    <glyph glyph-name="fi" unicode="fi" horiz-adv-x="519" 
d="M23 0l96 442h-88l15 75h88q3 13 9 38.5t9.5 38t10.5 33.5t14 32t19 25t26 21t34 12t45 5q45 0 71 -8l-14 -72q-25 5 -40 5q-24 0 -40 -6.5t-26 -22.5t-14.5 -26.5t-10.5 -38t-9 -36.5h99l-14 -75h-100l-95 -442h-85zM527 714l-22 -104h-86l22 104h86zM292 0l108 517h85
l-108 -517h-85z" />
    <glyph glyph-name="fl" unicode="fl" horiz-adv-x="519" 
d="M292 0l150 714h85l-150 -714h-85zM23 0l96 442h-88l15 75h88q3 13 9 38.5t9.5 38t10.5 33.5t14 32t19 25t26 21t34 12t45 5q45 0 71 -8l-14 -72q-25 5 -40 5q-24 0 -40 -6.5t-26 -22.5t-14.5 -26.5t-10.5 -38t-9 -36.5h99l-14 -75h-100l-95 -442h-85z" />
    <glyph glyph-name=".notdef" horiz-adv-x="512" 
d="M222 117h56v67h-56v-67zM225 234h46q0 52 6 72q6 19 43 52q37 34 50 60t13 60q0 59 -35 95t-89 36q-56 0 -92 -34t-43 -103l50 -8q11 95 82 95q31 0 53.5 -24.5t22.5 -60.5q0 -20 -9.5 -37t-40.5 -46q-31 -31 -46 -59q-13 -25 -13 -81zM462 50h-412v617h412v-617z
M512 718h-512v-718h512v718z" />
    <glyph glyph-name=".null" horiz-adv-x="500" 
 />
    <glyph glyph-name=".null" horiz-adv-x="500" 
 />
    <glyph glyph-name="nonmarkingreturn" horiz-adv-x="333" 
 />
    <glyph glyph-name="CR" unicode="&#xd;" horiz-adv-x="0" 
 />
    <glyph glyph-name="space" unicode=" " horiz-adv-x="278" 
 />
    <glyph glyph-name="exclam" unicode="!" horiz-adv-x="259" 
d="M252 714l-47 -223l-90 -308h-46l43 308l47 223h93zM0 0l24 111h111l-24 -111h-111z" />
    <glyph glyph-name="quotedbl" unicode="&#x22;" horiz-adv-x="426" 
d="M286 456v258h68v-258h-68zM146 456v258h68v-258h-68z" />
    <glyph glyph-name="numbersign" unicode="#" 
d="M353 424h-122l-21 -150h122zM102 0l29 206h-97l9 68h97l21 150h-101l9 68h102l29 205h69l-29 -205h122l29 205h69l-29 -205h91l-9 -68h-91l-21 -150h93l-9 -68h-93l-29 -206h-69l29 206h-123l-29 -206h-69z" />
    <glyph glyph-name="dollar" unicode="$" 
d="M154 -97l18 85q-95 16 -141 79.5t-41 166.5h90q-7 -145 108 -169l54 269q-41 12 -69 25t-54.5 34t-40 52.5t-13.5 73.5q0 100 77.5 161t179.5 51l13 63h53l-14 -69q76 -21 122 -78t40 -144h-90q4 118 -87 148l-49 -246l54 -19q152 -43 152 -180q0 -76 -46 -132
t-112 -78.5t-134 -12.5l-17 -80h-53zM293 322l-54 -264q29 -8 71.5 3.5t79 47.5t36.5 88q0 20 -3 35.5t-11.5 27t-15.5 19t-22 14.5t-24 10l-28.5 9.5zM259 418l48 238q-35 0 -67 -10t-58.5 -40.5t-26.5 -76.5q0 -39 25.5 -65.5t65.5 -39.5z" />
    <glyph glyph-name="percent" unicode="%" horiz-adv-x="926" 
d="M79 454q0 58 18.5 114t62.5 98.5t104 42.5q146 0 146 -145q0 -61 -18 -117t-62 -97t-107 -41q-67 0 -105.5 38.5t-38.5 106.5zM581 137q0 -48 18 -71t61 -23q41 0 68.5 35t37.5 79t10 91q0 85 -73 85q-58 0 -90 -65.5t-32 -130.5zM513 133q0 58 18.5 114t62.5 98.5
t104 42.5q146 0 146 -145q0 -61 -18 -117t-62 -97t-107 -41q-67 0 -105.5 38.5t-38.5 106.5zM209 -28l435 753h64l-435 -753h-64zM147 458q0 -48 18 -71t61 -23q41 0 68.5 35t37.5 79t10 91q0 85 -73 85q-58 0 -90 -65.5t-32 -130.5z" />
    <glyph glyph-name="ampersand" unicode="&#x26;" horiz-adv-x="630" 
d="M246 551q0 -45 45 -117q25 14 34 19.5t31.5 21t32 26.5t19 28.5t9.5 35.5q0 33 -22.5 53.5t-56.5 20.5q-40 0 -66 -24t-26 -64zM468 0l-44 74q-91 -86 -204 -86q-86 0 -142.5 50t-56.5 135q0 35 12.5 65.5t29.5 51.5t47.5 43t52 34t57.5 31q-19 29 -29 47.5t-20 49.5
t-10 61q0 71 50 114.5t128 43.5q67 0 115 -35.5t48 -100.5q0 -36 -15.5 -67t-44 -56.5t-54.5 -42.5t-62 -36l112 -184q53 74 63 145h82q-26 -117 -103 -207l85 -130h-97zM384 130l-127 208q-32 -17 -53.5 -30t-46.5 -34t-38 -47.5t-13 -57.5q0 -47 36.5 -76.5t86.5 -29.5
q45 0 79 16t76 51z" />
    <glyph glyph-name="quotesingle" unicode="'" horiz-adv-x="278" 
d="M142 456v258h68v-258h-68z" />
    <glyph glyph-name="parenleft" unicode="(" horiz-adv-x="259" 
d="M172 -198h-56q-36 78 -58.5 179.5t-22.5 188.5q0 82 19 158.5t56 146.5t80 129t103 127h70q-243 -292 -243 -597q0 -180 52 -332z" />
    <glyph glyph-name="parenright" unicode=")" horiz-adv-x="259" 
d="M-47 -198h-70q243 283 243 596q0 181 -52 333h56q36 -83 58.5 -183t22.5 -186q0 -158 -66 -288t-192 -272z" />
    <glyph glyph-name="asterisk" unicode="*" horiz-adv-x="352" 
d="M272 714l-25 -113l110 11l5 -48l-107 -14l49 -100l-49 -23l-47 103l-78 -87l-37 37l77 84l-95 48l25 46l96 -49l22 105h54z" />
    <glyph glyph-name="plus" unicode="+" horiz-adv-x="600" 
d="M334 506v-219h218v-68h-218v-219h-68v219h-218v68h218v219h68z" />
    <glyph glyph-name="comma" unicode="," horiz-adv-x="278" 
d="M15 0l24 111h111q-4 -17 -11.5 -55.5t-12 -59t-16.5 -51t-26.5 -46.5t-40 -29.5t-59.5 -16.5l10 48q24 4 39.5 19t22 30.5t13.5 41.5q1 5 2 8h-56z" />
    <glyph glyph-name="hyphen" unicode="-" horiz-adv-x="389" 
d="M26 238l16 80h290l-16 -80h-290z" />
    <glyph glyph-name="period" unicode="." horiz-adv-x="278" 
d="M15 0l24 111h111l-24 -111h-111z" />
    <glyph glyph-name="slash" unicode="/" horiz-adv-x="333" 
d="M-18 -17l296 748h73l-296 -748h-73z" />
    <glyph glyph-name="zero" unicode="0" 
d="M115 249q0 -186 115 -186q55 0 98 45.5t65 109.5t32.5 116.5t10.5 82.5q0 5 0.5 31.5t0 36.5t-2.5 34.5t-6 36.5t-12 29.5t-19.5 26t-29 15.5t-39.5 7q-54 0 -97.5 -45t-67 -110.5t-36 -126t-12.5 -103.5zM25 263q0 65 18 138t53 144t97.5 117.5t141.5 46.5
q95 0 143 -64.5t48 -203.5q0 -43 -9 -97t-31.5 -118t-55.5 -116t-87.5 -87t-121.5 -35q-196 0 -196 275z" />
    <glyph glyph-name="one" unicode="1" 
d="M433 709l-151 -709h-90l115 539q-85 -20 -183 -20l14 68q69 0 133.5 32t95.5 90h66z" />
    <glyph glyph-name="two" unicode="2" 
d="M158 468h-90q12 113 77.5 177t177.5 64q88 0 143.5 -51.5t55.5 -137.5q0 -49 -19 -91t-58.5 -77t-70.5 -56.5t-88 -53.5t-77 -45q-93 -60 -116 -122h369l-16 -75h-452q5 61 27.5 109t62.5 83t77.5 60t92 57t86.5 56q46 36 69 69t23 81q0 56 -32 87.5t-87 31.5
q-69 0 -110 -47.5t-45 -118.5z" />
    <glyph glyph-name="three" unicode="3" 
d="M214 336l15 68q196 -11 196 132q0 57 -33 77.5t-87 20.5q-127 0 -144 -144h-90q13 95 73 157t166 62q96 0 150.5 -44.5t54.5 -132.5q0 -59 -37.5 -103t-89.5 -59q92 -41 92 -147q0 -85 -68 -160t-188 -75q-108 0 -166.5 57.5t-56.5 173.5h90q-6 -156 135 -156
q72 0 118 42.5t46 113.5q0 39 -14.5 63.5t-42.5 35.5t-54.5 14.5t-64.5 3.5z" />
    <glyph glyph-name="four" unicode="4" 
d="M271 0l36 166h-311l17 84l420 459h72l-98 -468h94l-15 -75h-94l-36 -166h-85zM387 562l-293 -321h228l67 321h-2z" />
    <glyph glyph-name="five" unicode="5" 
d="M523 697l-15 -75h-291l-56 -192l2 -2q51 39 125 39q93 0 146 -60t53 -154q0 -124 -80 -198q-77 -67 -187 -67q-98 0 -155.5 53t-57.5 149h90q0 -127 128 -127q80 0 126 53t46 133q0 69 -36 106t-105 37q-39 0 -73.5 -18.5t-52.5 -50.5h-76l110 374h359z" />
    <glyph glyph-name="six" unicode="6" 
d="M545 525h-90q-2 109 -110 109q-38 0 -70 -17t-52 -39t-38 -61t-26.5 -64.5t-20.5 -67.5h2q24 35 66 53t89 18q87 0 143.5 -60t56.5 -148q0 -113 -69 -186.5t-184 -73.5q-106 0 -159.5 65.5t-53.5 173.5q0 158 60 291q40 94 104.5 142.5t165.5 48.5q87 0 135.5 -48.5
t50.5 -135.5zM405 244q0 62 -34 99.5t-96 37.5q-73 0 -114.5 -50t-41.5 -125q0 -65 33 -104t98 -39q74 0 114.5 53t40.5 128z" />
    <glyph glyph-name="seven" unicode="7" 
d="M576 697l-12 -71q-117 -109 -217 -283.5t-153 -342.5h-97q107 341 374 622h-369l17 75h457z" />
    <glyph glyph-name="eight" unicode="8" 
d="M104 519q0 89 62.5 139.5t153.5 50.5q82 0 140.5 -48t58.5 -128q0 -59 -35 -102.5t-92 -56.5v-2q50 -21 75 -65.5t25 -101.5q0 -95 -70.5 -156t-166.5 -61q-100 0 -166.5 51.5t-66.5 149.5q0 79 45.5 131t124.5 66v2q-39 17 -63.5 53.5t-24.5 77.5zM249 63q68 0 110.5 39
t42.5 106q0 58 -34.5 93t-96.5 35q-72 0 -115.5 -38t-43.5 -108q0 -62 37.5 -94.5t99.5 -32.5zM194 516q0 -54 33 -79.5t87 -25.5q51 0 83 32t32 83q0 53 -29.5 80.5t-83.5 27.5t-88 -32t-34 -86z" />
    <glyph glyph-name="nine" unicode="9" 
d="M4 169h90q0 -106 103 -106q39 0 71.5 16.5t53 38.5t39.5 59.5t28.5 63.5t21.5 66l-2 2q-23 -35 -65.5 -52.5t-90.5 -17.5q-87 0 -143 60t-56 148q0 111 68.5 186.5t178.5 75.5q108 0 163 -64t55 -174q0 -151 -59 -287q-44 -99 -103 -147.5t-159 -48.5q-92 0 -144 45.5
t-50 135.5zM274 314q73 0 114 50.5t41 124.5q0 68 -35 106.5t-102 38.5q-69 0 -108.5 -56t-39.5 -127q0 -62 34 -99.5t96 -37.5z" />
    <glyph glyph-name="colon" unicode=":" horiz-adv-x="278" 
d="M234 517l-23 -111h-112l23 111h112zM15 0l22 111h113l-23 -111h-112z" />
    <glyph glyph-name="semicolon" unicode=";" horiz-adv-x="278" 
d="M234 517l-24 -111h-111l24 111h111zM15 0l24 111h111q-4 -17 -11.5 -55.5t-12 -59t-16.5 -51t-26.5 -46.5t-40 -29.5t-59.5 -16.5l10 48q24 4 39.5 19t22 30.5t13.5 41.5q1 5 2 8h-56z" />
    <glyph glyph-name="less" unicode="&#x3c;" horiz-adv-x="600" 
d="M554 514v-68l-425 -193l425 -193v-68l-508 230v62z" />
    <glyph glyph-name="equal" unicode="=" horiz-adv-x="600" 
d="M48 118v68h504v-68h-504zM552 388v-68h-504v68h504z" />
    <glyph glyph-name="greater" unicode="&#x3e;" horiz-adv-x="600" 
d="M46 -8v68l425 193l-425 193v68l508 -230v-62z" />
    <glyph glyph-name="question" unicode="?" 
d="M145 0l24 111h111l-24 -111h-111zM171 488h-85q6 101 73.5 167.5t168.5 66.5q83 0 145 -43t62 -122q0 -57 -23 -100.5t-57 -70.5t-69 -51t-64.5 -56.5t-38.5 -73.5l-4 -22h-83q14 84 50 129q29 39 104 90q95 63 95 140q0 52 -31 78.5t-84 26.5q-69 0 -111 -45t-48 -114z
" />
    <glyph glyph-name="at" unicode="@" horiz-adv-x="800" 
d="M618 554l-84 -284q-11 -37 -11 -51q0 -31 24 -31q46 0 92 75.5t46 154.5q0 114 -80.5 186t-190.5 72q-127 0 -215.5 -94.5t-88.5 -226.5q0 -133 91 -225t218 -92q71 0 138 33t110 88h63q-49 -82 -132.5 -129t-180.5 -47q-158 0 -266.5 109t-108.5 268q0 153 109 262
t262 109q141 0 240.5 -87.5t99.5 -220.5q0 -62 -23.5 -118t-59 -92.5t-76 -58t-75.5 -21.5q-27 0 -44.5 16.5t-19.5 48.5h-3q-59 -67 -124 -67q-63 0 -103 45.5t-40 112.5q0 110 67 197t168 87q81 0 112 -82l23 63h63zM420 505q-66 0 -113 -69t-47 -140q0 -42 24 -69.5
t62 -27.5q61 0 108 72t47 141q0 36 -25 64.5t-56 28.5z" />
    <glyph glyph-name="A" unicode="A" horiz-adv-x="667" 
d="M-55 0l430 714h104l129 -714h-98l-33 215h-301l-125 -215h-106zM410 630l-191 -335h246l-53 335h-2z" />
    <glyph glyph-name="B" unicode="B" horiz-adv-x="685" 
d="M231 634l-48 -227h212q152 0 152 136q0 30 -12.5 49.5t-36 28t-44 11t-47.5 2.5h-176zM7 0l149 714h287q199 0 199 -171q0 -62 -37.5 -112t-98.5 -60v-2q50 -15 78.5 -53.5t28.5 -94.5q0 -100 -72.5 -160.5t-180.5 -60.5h-353zM167 327l-52 -247h230q25 0 48 4t54.5 16.5
t51 43.5t19.5 77q0 62 -39 84t-108 22h-204z" />
    <glyph glyph-name="C" unicode="C" horiz-adv-x="722" 
d="M565 241h95q-28 -123 -107.5 -190.5t-208.5 -67.5q-146 0 -226 82.5t-80 230.5q0 117 46 215t137 159t209 61q121 0 196.5 -64t75.5 -183h-95q0 82 -48 124.5t-129 42.5q-95 0 -164.5 -54t-101 -132.5t-31.5 -168.5q0 -108 53.5 -170.5t157.5 -62.5q172 0 221 178z" />
    <glyph glyph-name="D" unicode="D" horiz-adv-x="704" 
d="M234 634l-117 -554h165q97 0 167 52.5t102 130.5t32 168q0 203 -197 203h-152zM7 0l151 714h250q131 0 200.5 -72t69.5 -201q0 -201 -109.5 -321t-287.5 -120h-274z" />
    <glyph glyph-name="E" unicode="E" horiz-adv-x="611" 
d="M7 0l151 714h492l-16 -80h-397l-48 -227h370l-16 -80h-371l-52 -247h402l-18 -80h-497z" />
    <glyph glyph-name="F" unicode="F" horiz-adv-x="574" 
d="M7 0l149 714h470l-17 -80h-375l-47 -227h330l-17 -80h-330l-68 -327h-95z" />
    <glyph glyph-name="G" unicode="G" horiz-adv-x="759" 
d="M563 0l-6 71q-81 -88 -213 -88q-146 0 -226 82.5t-80 230.5q0 117 46 215t137 159t209 61q126 0 206.5 -60.5t80.5 -178.5h-95q0 78 -54.5 118.5t-137.5 40.5q-95 0 -164.5 -54t-101 -132.5t-31.5 -168.5q0 -108 53.5 -170.5t157.5 -62.5q108 0 169 60.5t89 172.5h-228
l16 80h311l-78 -376h-60z" />
    <glyph glyph-name="H" unicode="H" horiz-adv-x="722" 
d="M7 0l150 714h96l-65 -307h374l64 307h95l-150 -714h-95l69 327h-374l-69 -327h-95z" />
    <glyph glyph-name="I" unicode="I" horiz-adv-x="259" 
d="M7 0l150 714h95l-150 -714h-95z" />
    <glyph glyph-name="J" unicode="J" horiz-adv-x="519" 
d="M525 714l-113 -538q-22 -98 -71.5 -145.5t-151.5 -47.5q-89 0 -143.5 40t-54.5 112q0 49 9 99h96q-9 -42 -10 -74q0 -97 105 -97q34 0 59 13.5t39.5 40t22.5 50t15 58.5l104 489h94z" />
    <glyph glyph-name="K" unicode="K" horiz-adv-x="667" 
d="M7 0l151 714h95l-75 -352l2 -2l404 354h127l-344 -294l229 -420h-105l-195 362l-143 -121l-51 -241h-95z" />
    <glyph glyph-name="L" unicode="L" 
d="M7 0l150 714h95l-132 -634h377l-17 -80h-473z" />
    <glyph glyph-name="M" unicode="M" horiz-adv-x="870" 
d="M7 0l150 714h132l95 -614h2l353 614h132l-151 -714h-91l146 625h-2l-364 -625h-91l-93 625h-2l-125 -625h-91z" />
    <glyph glyph-name="N" unicode="N" horiz-adv-x="722" 
d="M7 0l151 714h102l255 -591h2l119 591h92l-151 -714h-102l-253 587h-2l-121 -587h-92z" />
    <glyph glyph-name="O" unicode="O" horiz-adv-x="759" 
d="M133 296q0 -108 53.5 -170.5t157.5 -62.5q90 0 157.5 53t99.5 131.5t32 167.5q0 103 -53.5 169.5t-149.5 66.5q-95 0 -164.5 -54t-101 -132.5t-31.5 -168.5zM38 296q0 117 46 215t137 159t209 61q136 0 217 -90t81 -226q0 -113 -45.5 -211t-134.5 -159.5t-204 -61.5
q-146 0 -226 82.5t-80 230.5z" />
    <glyph glyph-name="P" unicode="P" horiz-adv-x="648" 
d="M236 634l-55 -262h215q75 0 116.5 39.5t41.5 105.5q0 62 -32.5 89.5t-84.5 27.5h-201zM7 0l149 714h281q103 0 157.5 -49.5t54.5 -147.5q0 -37 -13.5 -73.5t-43 -72t-85.5 -57.5t-131 -22h-212l-62 -292h-95z" />
    <glyph glyph-name="Q" unicode="Q" horiz-adv-x="759" 
d="M381 146l54 57l79 -77q58 48 88.5 126.5t30.5 162.5q0 103 -53.5 169.5t-149.5 66.5q-95 0 -164.5 -54t-101 -132.5t-31.5 -168.5q0 -108 53.5 -170.5t157.5 -62.5q57 0 102 21zM663 -18l-54 -56l-99 96q-75 -39 -166 -39q-146 0 -226 82.5t-80 230.5q0 117 46 215
t137 159t209 61q136 0 217 -90t81 -226q0 -104 -40 -196.5t-112 -152.5z" />
    <glyph glyph-name="R" unicode="R" horiz-adv-x="685" 
d="M7 0l151 714h275q48 0 88 -9t74.5 -29t53.5 -56.5t19 -87.5q0 -72 -45.5 -127t-115.5 -65v-2q44 -14 61.5 -56t11.5 -99q-1 -17 -5.5 -47t-7 -48.5t0.5 -43t13 -44.5h-99q-18 55 2 153q15 86 -6.5 117.5t-62.5 34.5h-38h-211l-64 -305h-95zM236 634l-53 -249h214
q53 0 90 14.5t54.5 37.5t24.5 44.5t7 44.5q0 108 -140 108h-197z" />
    <glyph glyph-name="S" unicode="S" horiz-adv-x="648" 
d="M614 503h-95q2 80 -41 114t-123 34q-61 0 -113 -30t-52 -87q0 -48 30 -73.5t86 -41.5l96 -26q80 -22 126 -64t46 -129q0 -53 -25 -96t-66 -68.5t-89 -39t-98 -13.5q-136 0 -213 62.5t-68 188.5h95q-4 -92 46.5 -131.5t143.5 -39.5q74 0 126.5 35t52.5 102q0 50 -33 75.5
t-94 42.5l-97 26q-160 45 -160 180q0 97 78 152t182 55q54 0 100.5 -13.5t83 -40.5t57 -71.5t18.5 -102.5z" />
    <glyph glyph-name="T" unicode="T" horiz-adv-x="574" 
d="M653 714l-18 -80h-240l-134 -634h-95l134 634h-240l17 80h576z" />
    <glyph glyph-name="U" unicode="U" horiz-adv-x="722" 
d="M728 714l-89 -428q-23 -106 -36 -137q-34 -84 -108 -125t-170 -41q-158 0 -224 80t-35 231l89 420h95l-94 -444q-24 -103 20 -155t149 -52q46 0 80 11t55.5 28t38 48.5t25.5 60t19 75.5l90 428h95z" />
    <glyph glyph-name="V" unicode="V" horiz-adv-x="611" 
d="M691 714l-403 -714h-107l-102 714h97l73 -621h2l339 621h101z" />
    <glyph glyph-name="W" unicode="W" horiz-adv-x="926" 
d="M983 714l-328 -714h-99l-45 616h-2l-282 -616h-102l-45 714h94l25 -601h2l274 601h108l40 -603h2l260 603h98z" />
    <glyph glyph-name="X" unicode="X" horiz-adv-x="611" 
d="M-44 0l310 373l-172 341h102l132 -282l229 282h107l-294 -354l181 -360h-98l-144 302l-244 -302h-109z" />
    <glyph glyph-name="Y" unicode="Y" horiz-adv-x="611" 
d="M193 0l61 287l-188 427h101l146 -346l271 346h110l-346 -427l-62 -287h-93z" />
    <glyph glyph-name="Z" unicode="Z" horiz-adv-x="611" 
d="M-38 0l17 79l536 555h-409l20 80h521l-17 -81l-540 -553h456l-17 -80h-567z" />
    <glyph glyph-name="bracketleft" unicode="[" horiz-adv-x="259" 
d="M-29 -198l192 929h189l-14 -65h-108l-164 -799h108l-14 -65h-189z" />
    <glyph glyph-name="backslash" unicode="\" horiz-adv-x="333" 
d="M55 731l296 -748h-73l-296 748h73z" />
    <glyph glyph-name="bracketright" unicode="]" horiz-adv-x="259" 
d="M253 731l-192 -929h-189l14 65h108l164 799h-108l14 65h189z" />
    <glyph glyph-name="asciicircum" unicode="^" horiz-adv-x="600" 
d="M50 264l218 433h64l218 -433h-70l-181 360l-178 -360h-71z" />
    <glyph glyph-name="underscore" unicode="_" horiz-adv-x="500" 
d="M0 -125v50h500v-50h-500z" />
    <glyph glyph-name="grave" unicode="`" horiz-adv-x="222" 
d="M217 732l67 -143h-67l-101 143h101z" />
    <glyph glyph-name="a" unicode="a" horiz-adv-x="519" 
d="M138 361h-85q11 82 74 125t150 43q189 0 189 -132q0 -30 -16 -94l-33 -141q-1 -7 -5 -22t-6.5 -28t-2.5 -24q0 -32 25 -32q8 0 27 7l-13 -63q-22 -12 -52 -12q-35 0 -53 19.5t-14 53.5l-2 2q-56 -75 -173 -75q-70 0 -114 35.5t-44 110.5q0 35 10 62t31 44.5t41 28.5
t54 18t55.5 10t58.5 6q7 1 11 1q33 3 49 5t35 7.5t27 13.5t13.5 21.5t5.5 34.5q0 37 -31 52.5t-73 15.5q-53 0 -92 -23t-47 -70zM75 135q0 -34 27 -53t66 -19q101 0 145 68q10 14 17.5 32t11 30t9 37t7.5 34h-2q-22 -16 -73 -23.5t-94.5 -11t-78 -26.5t-35.5 -68z" />
    <glyph glyph-name="b" unicode="b" horiz-adv-x="593" 
d="M-5 0l151 714h85l-55 -261l2 -2q62 78 158 78q100 0 151.5 -60t51.5 -163q0 -129 -74 -223.5t-199 -94.5q-68 0 -116.5 33t-57.5 75h-2l-19 -96h-76zM454 306q0 65 -30.5 106.5t-87.5 41.5q-70 0 -120 -44t-70.5 -101.5t-20.5 -116.5q0 -60 38.5 -94.5t102.5 -34.5
q58 0 102.5 40.5t65 95t20.5 107.5z" />
    <glyph glyph-name="c" unicode="c" horiz-adv-x="537" 
d="M501 353h-85q0 48 -29 74.5t-80 26.5q-92 0 -146.5 -75t-54.5 -168q0 -66 30.5 -107t97.5 -41q54 0 93.5 28.5t57.5 77.5h85q-23 -87 -84.5 -134t-151.5 -47q-104 0 -158.5 58.5t-54.5 164.5q0 131 77 224.5t209 93.5q90 0 140.5 -43.5t53.5 -132.5z" />
    <glyph glyph-name="d" unicode="d" horiz-adv-x="593" 
d="M606 714l-151 -714h-80l18 74h-2q-37 -48 -77 -67t-94 -19q-97 0 -150 58t-53 154q0 126 79.5 227.5t207.5 101.5q35 0 66 -8t58 -29t37 -54h2l55 276h84zM102 200q0 -137 133 -137q61 0 109 42.5t70.5 100t22.5 114.5q0 60 -34.5 97t-95.5 37q-94 0 -149.5 -79
t-55.5 -175z" />
    <glyph glyph-name="e" unicode="e" horiz-adv-x="537" 
d="M487 233h-389q-3 -23 -3 -45q0 -57 39.5 -91t94.5 -34q112 0 149 99h85q-20 -84 -83.5 -129t-150.5 -45q-61 0 -106 19.5t-68.5 51.5t-34 66t-10.5 71q0 145 78.5 239t187.5 94q219 0 219 -229q0 -27 -8 -67zM110 308h300q4 61 -25.5 103.5t-95.5 42.5q-71 0 -115 -40
t-64 -106z" />
    <glyph glyph-name="f" unicode="f" horiz-adv-x="296" 
d="M23 0l96 442h-88l15 75h88q3 13 9 38.5t9.5 38t10.5 33.5t14 32t19 25t26 21t34 12t45 5q45 0 71 -8l-14 -72q-25 5 -40 5q-24 0 -40 -6.5t-26 -22.5t-14.5 -26.5t-10.5 -38t-9 -36.5h99l-14 -75h-100l-95 -442h-85z" />
    <glyph glyph-name="g" unicode="g" horiz-adv-x="574" 
d="M552 517l-93 -442q-22 -99 -40 -141q-61 -144 -235 -144q-87 0 -145.5 39.5t-60.5 120.5h85q6 -85 130 -85q27 0 50 6.5t39.5 16t30.5 27.5t22.5 32.5t17.5 40t13.5 41.5t11.5 44l-2 2q-52 -79 -161 -79q-93 0 -143.5 59t-50.5 155q0 123 75 221t194 98q58 0 105 -29
t59 -76v-2h2l16 95h80zM106 210q0 -59 33 -99t94 -40q46 0 83 24t59 61.5t34 79.5t12 83q0 63 -33.5 99t-98.5 36q-56 0 -99.5 -42t-63.5 -96.5t-20 -105.5z" />
    <glyph glyph-name="h" unicode="h" 
d="M-5 0l151 714h85l-61 -273l2 -2q66 90 184 90q73 0 108.5 -32t35.5 -101q0 -34 -15 -101l-63 -295h-85l66 302q1 6 4.5 24t5.5 33t2 23q0 35 -25 53.5t-65 18.5q-73 0 -128 -60q-37 -32 -57 -108l-60 -286h-85z" />
    <glyph glyph-name="i" unicode="i" horiz-adv-x="222" 
d="M230 714l-22 -104h-86l22 104h86zM-5 0l108 517h85l-108 -517h-85z" />
    <glyph glyph-name="j" unicode="j" horiz-adv-x="222" 
d="M230 714l-22 -104h-86l22 104h86zM-120 -192l15 75q22 -6 33 -6q26 0 37.5 19.5t24.5 77.5l113 543h85l-130 -614q-24 -101 -122 -101q-33 0 -56 6z" />
    <glyph glyph-name="k" unicode="k" horiz-adv-x="481" 
d="M-5 0l151 714h84l-89 -420l2 -2l260 225h111l-225 -191l128 -326h-95l-101 275l-102 -91l-39 -184h-85z" />
    <glyph glyph-name="l" unicode="l" horiz-adv-x="222" 
d="M-5 0l150 714h85l-150 -714h-85z" />
    <glyph glyph-name="m" unicode="m" horiz-adv-x="852" 
d="M-5 0l110 517h79l-19 -77l2 -2q73 91 180 91q109 0 130 -93q30 42 78 67.5t99 25.5q61 0 102.5 -28.5t41.5 -87.5q0 -41 -15 -103l-65 -310h-85l72 328q8 32 8 56q0 30 -22.5 50t-56.5 20t-70.5 -21t-59.5 -50q-31 -35 -48 -116l-57 -267h-85l62 295q16 71 16 91
q0 68 -72 68q-33 0 -68 -19t-59 -47q-25 -24 -35 -48.5t-20 -68.5l-58 -271h-85z" />
    <glyph glyph-name="n" unicode="n" 
d="M-5 0l109 517h82l-16 -78h2q66 90 184 90q73 0 108.5 -32t35.5 -101q0 -34 -15 -101l-63 -295h-85l66 302q1 6 4.5 24t5.5 33t2 23q0 35 -25 53.5t-65 18.5q-73 0 -128 -60q-37 -32 -57 -108l-60 -286h-85z" />
    <glyph glyph-name="o" unicode="o" horiz-adv-x="574" 
d="M17 204q0 133 79 229t210 96q104 0 159.5 -55t55.5 -159q0 -133 -78 -230t-208 -97q-100 0 -159 60t-59 156zM102 205q0 -65 37 -103.5t105 -38.5q58 0 104 41t67 96t21 108q0 64 -34.5 105t-101.5 41q-62 0 -108.5 -40.5t-68 -96t-21.5 -112.5z" />
    <glyph glyph-name="p" unicode="p" horiz-adv-x="593" 
d="M-49 -198l151 715h80l-18 -74h2q37 48 77 67t94 19q97 0 150 -58t53 -154q0 -126 -79.5 -227.5t-207.5 -101.5q-55 0 -101.5 22t-59.5 69h-2l-55 -277h-84zM455 317q0 137 -133 137q-61 0 -109 -42.5t-70.5 -100t-22.5 -114.5q0 -60 34.5 -97t95.5 -37q94 0 149.5 79
t55.5 175z" />
    <glyph glyph-name="q" unicode="q" horiz-adv-x="593" 
d="M102 212q0 -65 33 -107t99 -42q64 0 110.5 44.5t66.5 102.5t20 117t-35 93t-98 34q-59 0 -105.5 -39t-68.5 -93t-22 -110zM561 517l-151 -715h-86l56 264h-2q-64 -78 -163 -78q-97 0 -147.5 61.5t-50.5 162.5q0 82 31.5 153t95 117.5t145.5 46.5q130 0 167 -94h2l17 82
h86z" />
    <glyph glyph-name="r" unicode="r" horiz-adv-x="333" 
d="M-5 0l108 517h80l-25 -111h2q69 123 188 123h30l-20 -91q-4 1 -13 1h-12q-31 0 -51 -5q-66 -17 -110 -84q-26 -37 -43 -121l-49 -229h-85z" />
    <glyph glyph-name="s" unicode="s" horiz-adv-x="481" 
d="M440 365h-85q2 42 -28.5 65.5t-78.5 23.5q-110 0 -110 -66q0 -16 8 -28t31.5 -25t34 -17.5t47.5 -18.5l15 -6q32 -14 51 -24.5t41.5 -28t33.5 -40.5t11 -52q0 -80 -63 -120t-148 -40q-209 0 -209 175h85q-3 -53 34.5 -76.5t97.5 -23.5q48 0 83 19t35 60q0 15 -6.5 26.5
t-23 22t-28.5 16.5t-39 17t-39 16q-64 25 -100.5 56t-36.5 84q0 68 57.5 108.5t134.5 40.5q81 0 138 -40t57 -124z" />
    <glyph glyph-name="t" unicode="t" horiz-adv-x="315" 
d="M253 670l-32 -153h103l-16 -75h-103l-64 -304q0 -2 -1.5 -14.5t-1.5 -19.5q0 -35 51 -35q20 0 49 9l-15 -78q-30 -6 -60 -6q-116 0 -116 84q0 16 5 43l68 321h-87l16 75h87l32 153h85z" />
    <glyph glyph-name="u" unicode="u" 
d="M520 517l-109 -517h-82l16 78h-2q-66 -90 -184 -90q-73 0 -108.5 32t-35.5 101q0 34 15 101l63 295h85l-66 -302q-12 -46 -12 -80q0 -35 25 -53.5t65 -18.5q68 0 119 49.5t66 118.5l60 286h85z" />
    <glyph glyph-name="v" unicode="v" horiz-adv-x="481" 
d="M494 517l-287 -517h-91l-74 517h90l44 -430h2l224 430h92z" />
    <glyph glyph-name="w" unicode="w" horiz-adv-x="759" 
d="M762 517l-267 -517h-90l-26 402h-2l-185 -402h-90l-61 517h90l32 -411h2l186 411h96l25 -411h2l196 411h92z" />
    <glyph glyph-name="x" unicode="x" horiz-adv-x="481" 
d="M-66 0l242 274l-115 243h98l78 -188l154 188h103l-222 -250l132 -267h-97l-94 212l-176 -212h-103z" />
    <glyph glyph-name="y" unicode="y" horiz-adv-x="481" 
d="M505 517l-342 -605q-21 -32 -33 -48.5t-32.5 -36.5t-45 -28.5t-56.5 -8.5q-33 0 -59 13l15 69q23 -14 49 -14q46 0 80 56l52 86l-91 517h91l60 -411h2l217 411h93z" />
    <glyph glyph-name="z" unicode="z" horiz-adv-x="444" 
d="M-53 0l12 64l360 378h-278l15 75h393l-13 -61l-363 -381h309l-14 -75h-421z" />
    <glyph glyph-name="braceleft" unicode="{" horiz-adv-x="333" 
d="M395 731l-13 -60h-50q-50 0 -66 -88l-37 -181q-14 -61 -50 -94t-65 -40l-1 -3q22 -3 43.5 -26t21.5 -70q0 -8 -6 -38l-37 -181q-3 -16 -3 -34q0 -54 33 -54h50l-13 -60h-70q-33 0 -59 24t-26 66q0 21 4 41l38 182q4 20 4 41q0 34 -18 55t-45 21l15 68q33 0 64 33t43 85
l38 182q11 60 52.5 95.5t82.5 35.5h70z" />
    <glyph glyph-name="bar" unicode="|" horiz-adv-x="222" 
d="M77 -214v1000h68v-1000h-68z" />
    <glyph glyph-name="braceright" unicode="}" horiz-adv-x="333" 
d="M-91 -198l13 60h50q50 0 66 88l37 181q9 42 33.5 74t45 44.5t36.5 15.5l1 3q-22 3 -43.5 26t-21.5 70q0 8 6 38l37 181q3 17 3 34q0 54 -33 54h-50l13 60h70q33 0 59 -24t26 -66q0 -21 -4 -41l-38 -182q-4 -20 -4 -41q0 -35 18 -56t45 -21l-15 -68q-33 0 -64 -33t-43 -84
l-38 -182q-11 -60 -52.5 -95.5t-82.5 -35.5h-70z" />
    <glyph glyph-name="asciitilde" unicode="~" horiz-adv-x="600" 
d="M495 319l36 -50q-27 -41 -55 -63.5t-70 -22.5q-45 0 -102 33q-66 39 -115 39t-84 -76l-36 50q42 86 125 86q38 0 111 -32q10 -4 34.5 -16.5t40 -18t27.5 -5.5q7 0 14.5 2t13 4.5t12 8.5t10.5 9.5t10.5 12t9 12.5t9.5 14t9 13z" />
    <glyph glyph-name="Euro" 
d="M586 660l-42 -75q-66 56 -139 56q-153 0 -223 -191h325l-34 -59h-308l-9 -57h299l-34 -59h-267q4 -98 48 -156.5t138 -58.5q51 0 91 18t94 55l-21 -101q-85 -49 -175 -49q-124 0 -189.5 82t-67.5 210h-78l33 59h47l8 57h-67l33 59h48q35 118 116 194t197 76q93 0 177 -60
z" />
    <glyph glyph-name="Euro" unicode="&#x20ac;" 
d="M586 660l-42 -75q-66 56 -139 56q-153 0 -223 -191h325l-34 -59h-308l-9 -57h299l-34 -59h-267q4 -98 48 -156.5t138 -58.5q51 0 91 18t94 55l-21 -101q-85 -49 -175 -49q-124 0 -189.5 82t-67.5 210h-78l33 59h47l8 57h-67l33 59h48q35 118 116 194t197 76q93 0 177 -60
z" />
    <glyph glyph-name="uni00A0" unicode="&#xa0;" horiz-adv-x="278" 
 />
    <glyph glyph-name="exclamdown" unicode="&#xa1;" horiz-adv-x="259" 
d="M-27 -198l47 223l90 308h46l-43 -308l-47 -223h-93zM225 517l-24 -111h-111l24 111h111z" />
    <glyph glyph-name="cent" unicode="&#xa2;" 
d="M395 169h85q-23 -87 -85 -134t-154 -47l-22 -104h-39l23 107q-85 11 -128.5 68t-43.5 152q0 128 80 223t206 95l19 91h39l-20 -93q74 -9 115 -52.5t41 -121.5h-85q0 44 -23 71t-63 33l-84 -399q50 4 85.5 33t53.5 78zM116 211q0 -135 102 -150l84 398q-86 -6 -136 -81
t-50 -167z" />
    <glyph glyph-name="sterling" unicode="&#xa3;" 
d="M26 -12l-29 75q65 51 95 91t30 93q0 41 -10 80h-86l10 45h62q-23 86 -23 127q0 98 72.5 165t169.5 67q108 0 166.5 -70t52.5 -176h-90q6 67 -26.5 119t-95.5 52q-69 0 -114 -47.5t-45 -119.5q0 -60 23 -117h154l-10 -45h-130q10 -27 10 -68q0 -47 -40.5 -102t-93.5 -86
v-2q52 27 112 27q30 0 84 -16q6 -2 19.5 -7t21.5 -7.5t20.5 -5t23.5 -2.5q8 0 17.5 2.5t16 5t16.5 8.5t15 9.5t15.5 11t13.5 9.5l32 -72q-71 -49 -136 -49q-38 0 -104 24q-70 24 -101 24q-42 0 -118 -43z" />
    <glyph glyph-name="currency" unicode="&#xa4;" 
d="M281 524q-71 0 -119.5 -50.5t-48.5 -124.5q0 -73 48.5 -123t118.5 -50q69 0 116 51t47 124q0 71 -47 122t-115 51zM25 555l49 49l56 -56q62 51 151 51q85 0 143 -50l57 56l50 -51l-55 -55q52 -55 52 -148q0 -89 -52 -150l55 -56l-47 -47l-56 58q-60 -55 -148 -55
q-92 0 -152 54l-55 -58l-48 48l55 58q-52 63 -52 146q0 94 54 148z" />
    <glyph glyph-name="yen" unicode="&#xa5;" 
d="M170 0l36 174h-145l14 60h144l8 52l-8 23h-130l14 60h97l-110 345h98l101 -344l239 344h108l-249 -345h96l-13 -60h-129l-24 -33l-9 -42h147l-14 -60h-146l-36 -174h-89z" />
    <glyph glyph-name="brokenbar" unicode="&#xa6;" horiz-adv-x="222" 
d="M145 661v-250h-68v250h68zM77 -89v250h68v-250h-68z" />
    <glyph glyph-name="section" unicode="&#xa7;" 
d="M520 555h-80q1 47 -23.5 74t-73.5 27q-39 0 -67 -22t-28 -55q0 -42 47 -93q8 -8 40 -40.5t45.5 -46.5t36 -39.5t39.5 -48.5q35 -47 35 -96q0 -66 -39 -110t-104 -52q29 -31 29 -89q0 -79 -55.5 -119.5t-138.5 -42.5q-83 2 -129.5 54t-46.5 135h80q0 -53 28 -83.5
t82 -30.5q41 0 68 21.5t27 58.5q0 45 -49 101l-134 145q-63 69 -63 136q0 126 139 157q-22 32 -22 79q0 73 53.5 114.5t128.5 41.5q81 0 131 -48t44 -128zM126 351q0 -46 59 -107l70 -75q27 -27 59 -65q97 21 97 100q0 26 -25 61t-56 64t-65 63t-47 53q-9 0 -32 -12t-30 -19
q-30 -26 -30 -63z" />
    <glyph glyph-name="dieresis" unicode="&#xa8;" horiz-adv-x="222" 
d="M115 602l21 104h89l-21 -104h-89zM278 602l21 104h89l-21 -104h-89z" />
    <glyph glyph-name="copyright" unicode="&#xa9;" horiz-adv-x="800" 
d="M535 285h64q-16 -72 -66.5 -114.5t-119.5 -42.5q-100 0 -161 64.5t-61 164.5q0 102 59 165t160 63q74 0 125 -39.5t63 -112.5h-63q-8 43 -41.5 70t-82.5 27q-72 0 -112 -48t-40 -123q0 -73 42 -124.5t112 -51.5q49 0 82 28t40 74zM92 359q0 -137 88.5 -229t220.5 -92
q130 0 218.5 92t88.5 229q0 134 -88.5 225.5t-218.5 91.5q-132 0 -220.5 -91.5t-88.5 -225.5zM24 359q0 157 111 264.5t266 107.5t265 -107.5t110 -264.5q0 -159 -110 -267.5t-265 -108.5q-156 0 -266.5 108.5t-110.5 267.5z" />
    <glyph glyph-name="ordfeminine" unicode="&#xaa;" horiz-adv-x="311" 
d="M262 499l12 45h-2q-13 -11 -45 -15.5t-61 -6t-51.5 -15t-21.5 -40.5q0 -18 17 -27.5t42 -9.5q53 3 77 19t33 50zM135 606h-60q6 50 47.5 76.5t99.5 26.5q45 0 86 -18.5t41 -54.5q0 -7 -1.5 -16t-4.5 -20.5t-4 -16.5l-20 -83q-13 -55 -13 -58q0 -12 17 -12q7 0 15 3
l-8 -46q-16 -7 -34 -7q-23 0 -34.5 12.5t-9.5 33.5h-3q-35 -46 -97 -46q-119 0 -119 93q0 83 130 95q31 2 48.5 4.5t38 8t30 16.5t9.5 27q0 35 -67 35q-76 0 -87 -53z" />
    <glyph glyph-name="guillemotleft" unicode="&#xab;" horiz-adv-x="463" 
d="M349 114l-123 136l22 92l174 100l-21 -85l-120 -68l87 -90zM153 114l-123 136l22 92l174 100l-21 -85l-120 -68l87 -90z" />
    <glyph glyph-name="logicalnot" unicode="&#xac;" horiz-adv-x="600" 
d="M552 388v-279h-68v211h-436v68h504z" />
    <glyph glyph-name="uni00AD" unicode="&#xad;" horiz-adv-x="389" 
d="M26 238l16 80h290l-16 -80h-290z" />
    <glyph glyph-name="registered" unicode="&#xae;" horiz-adv-x="800" 
d="M323 521v-139h71q22 0 35.5 1t30.5 4.5t26.5 11t16 21.5t6.5 34q0 67 -96 67h-90zM255 139v437h169q153 0 153 -125q0 -107 -115 -119l125 -193h-73l-119 188h-72v-188h-68zM92 359q0 -137 88.5 -229t220.5 -92q130 0 218.5 92t88.5 229q0 134 -88.5 225.5t-218.5 91.5
q-132 0 -220.5 -91t-88.5 -226zM24 359q0 157 111 264.5t266 107.5t265 -107.5t110 -264.5q0 -159 -110 -267.5t-265 -108.5q-156 0 -266.5 108.5t-110.5 267.5z" />
    <glyph glyph-name="macron" unicode="&#xaf;" horiz-adv-x="222" 
d="M92 627l12 55h269l-11 -55h-270z" />
    <glyph glyph-name="degree" unicode="&#xb0;" horiz-adv-x="400" 
d="M127 561q0 -42 28 -70t70 -28t70 28t28 70t-28 70t-70 28t-70 -28t-28 -70zM77 561q0 62 43 105t105 43t105 -43t43 -105t-43 -105t-105 -43t-105 43t-43 105z" />
    <glyph glyph-name="plusminus" unicode="&#xb1;" horiz-adv-x="600" 
d="M48 0v68h504v-68h-504zM48 271v68h218v166h68v-166h218v-68h-218v-167h-68v167h-218z" />
    <glyph glyph-name="twosuperior" unicode="&#xb2;" horiz-adv-x="333" 
d="M123 561h-68q7 69 51 108.5t120 39.5q58 0 96 -31.5t38 -83.5q0 -84 -107 -142l-63 -36l-46.5 -27t-35 -25.5t-21.5 -28.5h231l-10 -55h-296q0 57 28 92t96 78l64 40q1 1 13 8t14.5 9t13 9t14 10t11.5 10t11 12.5t7.5 12.5t6 14.5t1.5 15.5q0 30 -19 46.5t-53 16.5
q-45 -2 -70 -26.5t-27 -66.5z" />
    <glyph glyph-name="threesuperior" unicode="&#xb3;" horiz-adv-x="333" 
d="M160 477l9 50q31 -3 57.5 1.5t46.5 22.5t20 49q0 54 -74 54q-39 0 -63 -21.5t-26 -56.5h-68q3 59 46.5 96t113.5 37q60 0 99.5 -28t39.5 -80q0 -35 -24.5 -62t-63.5 -36v-2q65 -22 65 -89q0 -54 -46.5 -96.5t-125.5 -42.5q-77 0 -114.5 36.5t-34.5 103.5h68
q-3 -41 14.5 -63t68.5 -22q46 0 74 22t28 63q0 23 -9.5 37.5t-25 20t-35.5 7t-40 -0.5z" />
    <glyph glyph-name="acute" unicode="&#xb4;" horiz-adv-x="222" 
d="M177 589l93 143h113l-136 -143h-70z" />
    <glyph glyph-name="mu" unicode="&#xb5;" 
d="M520 517l-109 -517h-82l16 78h-2q-31 -43 -78.5 -66.5t-93.5 -23.5q-32 0 -57.5 12t-35.5 26h-2l-47 -224h-85l149 715h85l-66 -302q-12 -46 -12 -80q0 -35 25 -53.5t65 -18.5q68 0 119 49.5t66 118.5l60 286h85z" />
    <glyph glyph-name="paragraph" unicode="&#xb6;" horiz-adv-x="600" 
d="M142 -155l102 491q-91 0 -139 53.5t-32 132.5q20 95 90 143.5t177 48.5h238l-181 -869h-64l169 814h-126l-169 -814h-65z" />
    <glyph glyph-name="periodcentered" unicode="&#xb7;" horiz-adv-x="278" 
d="M67 253q0 27 19.5 45.5t44.5 18.5q27 0 45.5 -18.5t18.5 -45.5q0 -28 -18.5 -46t-45.5 -18q-26 0 -45 19t-19 45z" />
    <glyph glyph-name="cedilla" unicode="&#xb8;" horiz-adv-x="222" 
d="M-121 -188l18 43q45 -15 64 -15q60 0 60 30q0 31 -46 31q-27 0 -42 -8l-19 30l68 77h48l-51 -54h2q9 4 26 4q36 0 62.5 -18t26.5 -55q0 -42 -36.5 -64.5t-82.5 -22.5q-50 0 -98 22z" />
    <glyph glyph-name="onesuperior" unicode="&#xb9;" horiz-adv-x="333" 
d="M304 709l-90 -429h-66l66 325q-51 -17 -117 -17l9 50q52 0 92.5 20t58.5 51h47z" />
    <glyph glyph-name="ordmasculine" unicode="&#xba;" horiz-adv-x="344" 
d="M44 512q0 80 52.5 138.5t137.5 58.5q68 0 104.5 -33.5t36.5 -96.5q0 -80 -51.5 -139.5t-134.5 -59.5q-68 0 -107 33.5t-38 98.5zM104 513q0 -37 22 -60t63 -23q55 0 90.5 44t35.5 101q0 38 -21 61t-64 23q-58 0 -92 -45.5t-34 -100.5z" />
    <glyph glyph-name="guillemotright" unicode="&#xbb;" horiz-adv-x="463" 
d="M296 442l123 -136l-22 -92l-174 -100l21 85l120 68l-87 90zM100 442l123 -136l-22 -92l-174 -100l21 85l120 68l-87 90z" />
    <glyph glyph-name="onequarter" unicode="&#xbc;" horiz-adv-x="834" 
d="M124 -28l435 753h64l-435 -753h-64zM286 709l-90 -429h-66l66 325q-51 -17 -117 -17l9 50q52 0 92.5 20t58.5 51h47zM482 151h139l41 181h-2zM589 0l22 96h-199l11 58l269 275h58l-64 -278h61l-13 -55h-60l-22 -96h-63z" />
    <glyph glyph-name="onehalf" unicode="&#xbd;" horiz-adv-x="834" 
d="M124 -28l435 753h64l-435 -753h-64zM542 281h-68q7 69 51 108.5t120 39.5q58 0 96 -31.5t38 -83.5q0 -84 -107 -142l-63 -36l-46.5 -27t-35 -25.5t-21.5 -28.5h231l-10 -55h-296q0 57 28 92t96 78l64 40q1 1 13 8t14.5 9t13 9t14 10t11.5 10t11 12.5t7.5 12.5t6 14.5
t1.5 15.5q0 30 -19 46.5t-53 16.5q-44 0 -69.5 -25.5t-27.5 -67.5zM286 709l-90 -429h-66l66 325q-51 -17 -117 -17l9 50q52 0 92.5 20t58.5 51h47z" />
    <glyph glyph-name="threequarters" unicode="&#xbe;" horiz-adv-x="834" 
d="M199 -28l435 753h64l-435 -753h-64zM160 477l9 50q31 -3 57.5 1.5t46.5 22.5t20 49q0 54 -74 54q-39 0 -63 -21.5t-26 -56.5h-68q3 59 46.5 96t113.5 37q60 0 99.5 -28t39.5 -80q0 -35 -24.5 -62t-63.5 -36v-2q65 -22 65 -89q0 -54 -46.5 -96.5t-125.5 -42.5
q-77 0 -114.5 36.5t-34.5 103.5h68q-3 -41 14.5 -63t68.5 -22q46 0 74 22t28 63q0 23 -9.5 37.5t-25 20t-35.5 7t-40 -0.5zM659 151l41 181h-2l-178 -181h139zM627 0l22 96h-199l11 58l269 275h58l-64 -278h61l-13 -55h-60l-22 -96h-63z" />
    <glyph glyph-name="questiondown" unicode="&#xbf;" 
d="M373 517l-25 -111h-110l22 111h113zM346 25h85q-12 -109 -78.5 -172t-174.5 -63q-82 0 -139.5 48t-57.5 130q0 101 110 183q4 3 25 17.5t26 18.5t22 18t22.5 21t17.5 21t16.5 25.5t9.5 27t6 32.5h83q-9 -58 -31 -98.5t-49.5 -65t-80.5 -61.5q-87 -63 -87 -132
q0 -48 31.5 -79t78.5 -31q137 0 165 160z" />
    <glyph glyph-name="Agrave" unicode="&#xc0;" horiz-adv-x="667" 
d="M-55 0l430 714h104l129 -714h-98l-33 215h-301l-125 -215h-106zM410 630l-191 -335h246l-53 335h-2zM411 922l67 -143h-67l-101 143h101z" />
    <glyph glyph-name="Aacute" unicode="&#xc1;" horiz-adv-x="667" 
d="M-55 0l430 714h104l129 -714h-98l-33 215h-301l-125 -215h-106zM410 630l-191 -335h246l-53 335h-2zM378 779l93 143h113l-136 -143h-70z" />
    <glyph glyph-name="Acircumflex" unicode="&#xc2;" horiz-adv-x="667" 
d="M-55 0l430 714h104l129 -714h-98l-33 215h-301l-125 -215h-106zM410 630l-191 -335h246l-53 335h-2zM282 779l133 143h86l75 -143h-74l-51 93l-87 -93h-82z" />
    <glyph glyph-name="Atilde" unicode="&#xc3;" horiz-adv-x="667" 
d="M-55 0l430 714h104l129 -714h-98l-33 215h-301l-125 -215h-106zM410 630l-191 -335h246l-53 335h-2zM309 798h-52q10 30 20 50.5t31 39.5t48 19q25 0 77 -25q5 -2 14.5 -6.5t14 -6.5t13 -5t11.5 -3h11q15 0 25 6.5t14 12.5t12 22h51q-15 -49 -38 -79t-64 -30
q-23 0 -75 24t-66 22q-33 0 -47 -41z" />
    <glyph glyph-name="Adieresis" unicode="&#xc4;" horiz-adv-x="667" 
d="M-55 0l430 714h104l129 -714h-98l-33 215h-301l-125 -215h-106zM410 630l-191 -335h246l-53 335h-2zM318 792l21 104h89l-21 -104h-89zM481 792l21 104h89l-21 -104h-89z" />
    <glyph glyph-name="Aring" unicode="&#xc5;" horiz-adv-x="667" 
d="M-55 0l430 714h104l129 -714h-98l-33 215h-301l-125 -215h-106zM410 630l-191 -335h246l-53 335h-2zM326 860q0 46 33.5 79.5t79.5 33.5t79.5 -33.5t33.5 -79.5t-33.5 -79.5t-79.5 -33.5t-79.5 33.5t-33.5 79.5zM371 860q0 -29 19.5 -48.5t48.5 -19.5t48.5 19.5
t19.5 48.5t-19.5 48.5t-48.5 19.5t-48.5 -19.5t-19.5 -48.5z" />
    <glyph glyph-name="AE" unicode="&#xc6;" horiz-adv-x="926" 
d="M-79 0l520 714h524l-17 -80h-351l-47 -227h330l-18 -80h-329l-53 -247h357l-16 -80h-455l43 208h-230l-149 -208h-109zM480 634l-245 -346h192l75 346h-22z" />
    <glyph glyph-name="Ccedilla" unicode="&#xc7;" horiz-adv-x="722" 
d="M183 -188l18 43q45 -15 64 -15q60 0 60 30q0 31 -46 31q-27 0 -42 -8l-19 30l57 65q-36 7 -61 16q-85 32 -130.5 106.5t-45.5 185.5q0 117 46 215t137 159t209 61q121 0 196.5 -64t75.5 -183h-95q0 82 -48 124.5t-129 42.5q-95 0 -164.5 -54t-101 -132.5t-31.5 -168.5
q0 -108 53.5 -170.5t157.5 -62.5q172 0 221 178h95q-28 -123 -107.5 -190.5t-208.5 -67.5q-17 0 -26 1l-35 -38h2q9 4 26 4q36 0 62.5 -18t26.5 -55q0 -42 -36.5 -64.5t-82.5 -22.5q-50 0 -98 22z" />
    <glyph glyph-name="Egrave" unicode="&#xc8;" horiz-adv-x="611" 
d="M7 0l151 714h492l-16 -80h-397l-48 -227h370l-16 -80h-371l-52 -247h402l-18 -80h-497zM411 922l67 -143h-67l-101 143h101z" />
    <glyph glyph-name="Eacute" unicode="&#xc9;" horiz-adv-x="611" 
d="M7 0l151 714h492l-16 -80h-397l-48 -227h370l-16 -80h-371l-52 -247h402l-18 -80h-497zM372 779l93 143h113l-136 -143h-70z" />
    <glyph glyph-name="Ecircumflex" unicode="&#xca;" horiz-adv-x="611" 
d="M7 0l151 714h492l-16 -80h-397l-48 -227h370l-16 -80h-371l-52 -247h402l-18 -80h-497zM260 779l133 143h86l75 -143h-74l-51 93l-87 -93h-82z" />
    <glyph glyph-name="Edieresis" unicode="&#xcb;" horiz-adv-x="611" 
d="M7 0l151 714h492l-16 -80h-397l-48 -227h370l-16 -80h-371l-52 -247h402l-18 -80h-497zM284 792l21 104h89l-21 -104h-89zM447 792l21 104h89l-21 -104h-89z" />
    <glyph glyph-name="Igrave" unicode="&#xcc;" horiz-adv-x="259" 
d="M7 0l150 714h95l-150 -714h-95zM189 922l67 -143h-67l-101 143h101z" />
    <glyph glyph-name="Iacute" unicode="&#xcd;" horiz-adv-x="259" 
d="M7 0l150 714h95l-150 -714h-95zM156 779l93 143h113l-136 -143h-70z" />
    <glyph glyph-name="Icircumflex" unicode="&#xce;" horiz-adv-x="259" 
d="M7 0l150 714h95l-150 -714h-95zM68 779l133 143h86l75 -143h-74l-51 93l-87 -93h-82z" />
    <glyph glyph-name="Idieresis" unicode="&#xcf;" horiz-adv-x="259" 
d="M7 0l150 714h95l-150 -714h-95zM93 792l21 104h89l-21 -104h-89zM256 792l21 104h89l-21 -104h-89z" />
    <glyph glyph-name="Eth" unicode="&#xd0;" horiz-adv-x="704" 
d="M234 634l-48 -227h200l-14 -68h-200l-55 -259h165q97 0 167 52.5t102 130.5t32 168q0 203 -197 203h-152zM7 0l72 339h-66l14 68h66l65 307h250q131 0 200.5 -72t69.5 -201q0 -201 -109.5 -321t-287.5 -120h-274z" />
    <glyph glyph-name="Ntilde" unicode="&#xd1;" horiz-adv-x="722" 
d="M7 0l151 714h102l255 -591h2l119 591h92l-151 -714h-102l-253 587h-2l-121 -587h-92zM342 798h-52q10 30 20 50.5t31 39.5t48 19q25 0 77 -25q5 -2 14.5 -6.5t14 -6.5t13 -5t11.5 -3h11q15 0 25 6.5t14 12.5t12 22h51q-15 -49 -38 -79t-64 -30q-23 0 -75 24t-66 22
q-33 0 -47 -41z" />
    <glyph glyph-name="Ograve" unicode="&#xd2;" horiz-adv-x="759" 
d="M133 296q0 -108 53.5 -170.5t157.5 -62.5q90 0 157.5 53t99.5 131.5t32 167.5q0 103 -53.5 169.5t-149.5 66.5q-95 0 -164.5 -54t-101 -132.5t-31.5 -168.5zM38 296q0 117 46 215t137 159t209 61q136 0 217 -90t81 -226q0 -113 -45.5 -211t-134.5 -159.5t-204 -61.5
q-146 0 -226 82.5t-80 230.5zM427 922l67 -143h-67l-101 143h101z" />
    <glyph glyph-name="Oacute" unicode="&#xd3;" horiz-adv-x="759" 
d="M133 296q0 -108 53.5 -170.5t157.5 -62.5q90 0 157.5 53t99.5 131.5t32 167.5q0 103 -53.5 169.5t-149.5 66.5q-95 0 -164.5 -54t-101 -132.5t-31.5 -168.5zM38 296q0 117 46 215t137 159t209 61q136 0 217 -90t81 -226q0 -113 -45.5 -211t-134.5 -159.5t-204 -61.5
q-146 0 -226 82.5t-80 230.5zM393 779l93 143h113l-136 -143h-70z" />
    <glyph glyph-name="Ocircumflex" unicode="&#xd4;" horiz-adv-x="759" 
d="M133 296q0 -108 53.5 -170.5t157.5 -62.5q90 0 157.5 53t99.5 131.5t32 167.5q0 103 -53.5 169.5t-149.5 66.5q-95 0 -164.5 -54t-101 -132.5t-31.5 -168.5zM38 296q0 117 46 215t137 159t209 61q136 0 217 -90t81 -226q0 -113 -45.5 -211t-134.5 -159.5t-204 -61.5
q-146 0 -226 82.5t-80 230.5zM312 779l133 143h86l75 -143h-74l-51 93l-87 -93h-82z" />
    <glyph glyph-name="Otilde" unicode="&#xd5;" horiz-adv-x="759" 
d="M133 296q0 -108 53.5 -170.5t157.5 -62.5q90 0 157.5 53t99.5 131.5t32 167.5q0 103 -53.5 169.5t-149.5 66.5q-95 0 -164.5 -54t-101 -132.5t-31.5 -168.5zM38 296q0 117 46 215t137 159t209 61q136 0 217 -90t81 -226q0 -113 -45.5 -211t-134.5 -159.5t-204 -61.5
q-146 0 -226 82.5t-80 230.5zM348 798h-52q10 30 20 50.5t31 39.5t48 19q25 0 77 -25q5 -2 14.5 -6.5t14 -6.5t13 -5t11.5 -3h11q15 0 25 6.5t14 12.5t12 22h51q-15 -49 -38 -79t-64 -30q-23 0 -75 24t-66 22q-33 0 -47 -41z" />
    <glyph glyph-name="Odieresis" unicode="&#xd6;" horiz-adv-x="759" 
d="M133 296q0 -108 53.5 -170.5t157.5 -62.5q90 0 157.5 53t99.5 131.5t32 167.5q0 103 -53.5 169.5t-149.5 66.5q-95 0 -164.5 -54t-101 -132.5t-31.5 -168.5zM38 296q0 117 46 215t137 159t209 61q136 0 217 -90t81 -226q0 -113 -45.5 -211t-134.5 -159.5t-204 -61.5
q-146 0 -226 82.5t-80 230.5zM327 792l21 104h89l-21 -104h-89zM490 792l21 104h89l-21 -104h-89z" />
    <glyph glyph-name="multiply" unicode="&#xd7;" horiz-adv-x="600" 
d="M119 24l-48 48l182 182l-181 180l48 48l181 -180l180 180l48 -48l-180 -180l181 -182l-48 -48l-181 182z" />
    <glyph glyph-name="Oslash" unicode="&#xd8;" horiz-adv-x="759" 
d="M606 541l-425 -406q56 -72 163 -72q90 0 157.5 53t99.5 131.5t32 167.5q0 72 -27 126zM158 173l425 406q-56 72 -153 72q-95 0 -164.5 -54t-101 -132.5t-31.5 -168.5q0 -72 25 -123zM-12 10l100 96q-50 77 -50 190q0 117 46 215t137 159t209 61q134 0 217 -91l98 93
l29 -32l-100 -95q54 -82 54 -191q0 -113 -45.5 -211t-134.5 -159.5t-204 -61.5q-147 0 -229 88h-3l-95 -93z" />
    <glyph glyph-name="Ugrave" unicode="&#xd9;" horiz-adv-x="722" 
d="M728 714l-89 -428q-23 -106 -36 -137q-34 -84 -108 -125t-170 -41q-158 0 -224 80t-35 231l89 420h95l-94 -444q-24 -103 20 -155t149 -52q46 0 80 11t55.5 28t38 48.5t25.5 60t19 75.5l90 428h95zM408 922l67 -143h-67l-101 143h101z" />
    <glyph glyph-name="Uacute" unicode="&#xda;" horiz-adv-x="722" 
d="M728 714l-89 -428q-23 -106 -36 -137q-34 -84 -108 -125t-170 -41q-158 0 -224 80t-35 231l89 420h95l-94 -444q-24 -103 20 -155t149 -52q46 0 80 11t55.5 28t38 48.5t25.5 60t19 75.5l90 428h95zM405 779l93 143h113l-136 -143h-70z" />
    <glyph glyph-name="Ucircumflex" unicode="&#xdb;" horiz-adv-x="722" 
d="M728 714l-89 -428q-23 -106 -36 -137q-34 -84 -108 -125t-170 -41q-158 0 -224 80t-35 231l89 420h95l-94 -444q-24 -103 20 -155t149 -52q46 0 80 11t55.5 28t38 48.5t25.5 60t19 75.5l90 428h95zM303 779l133 143h86l75 -143h-74l-51 93l-87 -93h-82z" />
    <glyph glyph-name="Udieresis" unicode="&#xdc;" horiz-adv-x="722" 
d="M728 714l-89 -428q-23 -106 -36 -137q-34 -84 -108 -125t-170 -41q-158 0 -224 80t-35 231l89 420h95l-94 -444q-24 -103 20 -155t149 -52q46 0 80 11t55.5 28t38 48.5t25.5 60t19 75.5l90 428h95zM319 792l21 104h89l-21 -104h-89zM482 792l21 104h89l-21 -104h-89z" />
    <glyph glyph-name="Yacute" unicode="&#xdd;" horiz-adv-x="611" 
d="M193 0l61 287l-188 427h101l146 -346l271 346h110l-346 -427l-62 -287h-93zM359 779l93 143h113l-136 -143h-70z" />
    <glyph glyph-name="Thorn" unicode="&#xde;" horiz-adv-x="648" 
d="M211 520l-55 -262h215q75 0 116.5 39.5t41.5 105.5q0 62 -32.5 89.5t-84.5 27.5h-201zM7 0l149 714h95l-23 -114h184q103 0 157.5 -49.5t54.5 -147.5q0 -37 -13.5 -73.5t-43 -72t-85.5 -57.5t-131 -22h-212l-37 -178h-95z" />
    <glyph glyph-name="germandbls" unicode="&#xdf;" horiz-adv-x="537" 
d="M-5 0l107 504q21 109 73.5 168t151.5 59q80 0 133.5 -37t53.5 -113q0 -72 -42 -124t-107 -60v-2q54 -8 83.5 -49.5t29.5 -97.5q0 -107 -71.5 -183.5t-177.5 -76.5q-43 0 -73 5l14 72q10 -2 15 -2h15q83 0 138 47.5t55 130.5q0 37 -12.5 61.5t-36 36.5t-50 15.5t-62.5 2.5
l15 70q74 -4 128 30.5t54 106.5q0 42 -30.5 67t-67.5 25q-36 0 -62.5 -13t-42.5 -38.5t-24.5 -49.5t-15.5 -58l-105 -497h-86z" />
    <glyph glyph-name="agrave" unicode="&#xe0;" horiz-adv-x="519" 
d="M138 361h-85q11 82 74 125t150 43q189 0 189 -132q0 -30 -16 -94l-33 -141q-1 -7 -5 -22t-6.5 -28t-2.5 -24q0 -32 25 -32q8 0 27 7l-13 -63q-22 -12 -52 -12q-35 0 -53 19.5t-14 53.5l-2 2q-56 -75 -173 -75q-70 0 -114 35.5t-44 110.5q0 35 10 62t31 44.5t41 28.5
t54 18t55.5 10t58.5 6q7 1 11 1q33 3 49 5t35 7.5t27 13.5t13.5 21.5t5.5 34.5q0 37 -31 52.5t-73 15.5q-53 0 -92 -23t-47 -70zM75 135q0 -34 27 -53t66 -19q101 0 145 68q10 14 17.5 32t11 30t9 37t7.5 34h-2q-22 -16 -73 -23.5t-94.5 -11t-78 -26.5t-35.5 -68zM308 732
l67 -143h-67l-101 143h101z" />
    <glyph glyph-name="aacute" unicode="&#xe1;" horiz-adv-x="519" 
d="M138 361h-85q11 82 74 125t150 43q189 0 189 -132q0 -30 -16 -94l-33 -141q-1 -7 -5 -22t-6.5 -28t-2.5 -24q0 -32 25 -32q8 0 27 7l-13 -63q-22 -12 -52 -12q-35 0 -53 19.5t-14 53.5l-2 2q-56 -75 -173 -75q-70 0 -114 35.5t-44 110.5q0 35 10 62t31 44.5t41 28.5
t54 18t55.5 10t58.5 6q7 1 11 1q33 3 49 5t35 7.5t27 13.5t13.5 21.5t5.5 34.5q0 37 -31 52.5t-73 15.5q-53 0 -92 -23t-47 -70zM75 135q0 -34 27 -53t66 -19q101 0 145 68q10 14 17.5 32t11 30t9 37t7.5 34h-2q-22 -16 -73 -23.5t-94.5 -11t-78 -26.5t-35.5 -68zM271 589
l93 143h113l-136 -143h-70z" />
    <glyph glyph-name="acircumflex" unicode="&#xe2;" horiz-adv-x="519" 
d="M138 361h-85q11 82 74 125t150 43q189 0 189 -132q0 -30 -16 -94l-33 -141q-1 -7 -5 -22t-6.5 -28t-2.5 -24q0 -32 25 -32q8 0 27 7l-13 -63q-22 -12 -52 -12q-35 0 -53 19.5t-14 53.5l-2 2q-56 -75 -173 -75q-70 0 -114 35.5t-44 110.5q0 35 10 62t31 44.5t41 28.5
t54 18t55.5 10t58.5 6q7 1 11 1q33 3 49 5t35 7.5t27 13.5t13.5 21.5t5.5 34.5q0 37 -31 52.5t-73 15.5q-53 0 -92 -23t-47 -70zM75 135q0 -34 27 -53t66 -19q101 0 145 68q10 14 17.5 32t11 30t9 37t7.5 34h-2q-22 -16 -73 -23.5t-94.5 -11t-78 -26.5t-35.5 -68zM149 589
l133 143h86l75 -143h-74l-51 93l-87 -93h-82z" />
    <glyph glyph-name="atilde" unicode="&#xe3;" horiz-adv-x="519" 
d="M138 361h-85q11 82 74 125t150 43q189 0 189 -132q0 -30 -16 -94l-33 -141q-1 -7 -5 -22t-6.5 -28t-2.5 -24q0 -32 25 -32q8 0 27 7l-13 -63q-22 -12 -52 -12q-35 0 -53 19.5t-14 53.5l-2 2q-56 -75 -173 -75q-70 0 -114 35.5t-44 110.5q0 35 10 62t31 44.5t41 28.5
t54 18t55.5 10t58.5 6q7 1 11 1q33 3 49 5t35 7.5t27 13.5t13.5 21.5t5.5 34.5q0 37 -31 52.5t-73 15.5q-53 0 -92 -23t-47 -70zM75 135q0 -34 27 -53t66 -19q101 0 145 68q10 14 17.5 32t11 30t9 37t7.5 34h-2q-22 -16 -73 -23.5t-94.5 -11t-78 -26.5t-35.5 -68zM186 608
h-52q10 30 20 50.5t31 39.5t48 19q25 0 77 -25q5 -2 14.5 -6.5t14 -6.5t13 -5t11.5 -3h11q15 0 25 6.5t14 12.5t12 22h51q-15 -49 -38 -79t-64 -30q-23 0 -75 24t-66 22q-33 0 -47 -41z" />
    <glyph glyph-name="adieresis" unicode="&#xe4;" horiz-adv-x="519" 
d="M138 361h-85q11 82 74 125t150 43q189 0 189 -132q0 -30 -16 -94l-33 -141q-1 -7 -5 -22t-6.5 -28t-2.5 -24q0 -32 25 -32q8 0 27 7l-13 -63q-22 -12 -52 -12q-35 0 -53 19.5t-14 53.5l-2 2q-56 -75 -173 -75q-70 0 -114 35.5t-44 110.5q0 35 10 62t31 44.5t41 28.5
t54 18t55.5 10t58.5 6q7 1 11 1q33 3 49 5t35 7.5t27 13.5t13.5 21.5t5.5 34.5q0 37 -31 52.5t-73 15.5q-53 0 -92 -23t-47 -70zM75 135q0 -34 27 -53t66 -19q101 0 145 68q10 14 17.5 32t11 30t9 37t7.5 34h-2q-22 -16 -73 -23.5t-94.5 -11t-78 -26.5t-35.5 -68zM176 602
l21 104h89l-21 -104h-89zM339 602l21 104h89l-21 -104h-89z" />
    <glyph glyph-name="aring" unicode="&#xe5;" horiz-adv-x="519" 
d="M138 361h-85q11 82 74 125t150 43q189 0 189 -132q0 -30 -16 -94l-33 -141q-1 -7 -5 -22t-6.5 -28t-2.5 -24q0 -32 25 -32q8 0 27 7l-13 -63q-22 -12 -52 -12q-35 0 -53 19.5t-14 53.5l-2 2q-56 -75 -173 -75q-70 0 -114 35.5t-44 110.5q0 35 10 62t31 44.5t41 28.5
t54 18t55.5 10t58.5 6q7 1 11 1q33 3 49 5t35 7.5t27 13.5t13.5 21.5t5.5 34.5q0 37 -31 52.5t-73 15.5q-53 0 -92 -23t-47 -70zM75 135q0 -34 27 -53t66 -19q101 0 145 68q10 14 17.5 32t11 30t9 37t7.5 34h-2q-22 -16 -73 -23.5t-94.5 -11t-78 -26.5t-35.5 -68zM204 674
q0 46 33.5 79.5t79.5 33.5t79.5 -33.5t33.5 -79.5t-33.5 -79.5t-79.5 -33.5t-79.5 33.5t-33.5 79.5zM249 674q0 -29 19.5 -48.5t48.5 -19.5t48.5 19.5t19.5 48.5t-19.5 48.5t-48.5 19.5t-48.5 -19.5t-19.5 -48.5z" />
    <glyph glyph-name="ae" unicode="&#xe6;" horiz-adv-x="870" 
d="M80 132q0 -36 27.5 -52.5t68.5 -16.5q80 0 125 45q43 43 61 158q-31 -15 -85.5 -23.5t-94.5 -14t-71 -29t-31 -67.5zM147 362h-83q13 86 76 126.5t155 40.5q125 0 165 -81q27 38 71.5 59.5t93.5 21.5q98 0 148.5 -52.5t50.5 -150.5q0 -39 -14 -93h-375q-5 -27 -5 -52
q0 -50 32 -84t92 -34q111 0 153 99h87q-11 -31 -28 -58q-77 -116 -219 -116q-145 0 -182 112q-66 -112 -203 -112q-167 0 -167 144q0 136 197 158q10 1 32 3.5t32.5 3.5t29.5 4t28.5 6t23.5 7.5t21.5 11t15 15t10.5 19.5t3 25q0 69 -113 69q-49 0 -83 -24t-45 -68zM449 308
h290q9 61 -21 103.5t-97 42.5q-66 0 -111.5 -42t-60.5 -104z" />
    <glyph glyph-name="ccedilla" unicode="&#xe7;" horiz-adv-x="537" 
d="M79 -188l18 43q45 -15 64 -15q60 0 60 30q0 31 -46 31q-27 0 -42 -8l-19 30l62 70q-64 12 -102 54q-53 59 -53 164q0 131 77 224.5t209 93.5q90 0 140.5 -43.5t53.5 -132.5h-85q0 48 -29 74.5t-80 26.5q-92 0 -146.5 -75t-54.5 -168q0 -66 30.5 -107t97.5 -41
q54 0 93.5 28.5t57.5 77.5h85q-23 -87 -84.5 -134t-151.5 -47h-15l-40 -42h2q9 4 26 4q36 0 62.5 -18t26.5 -55q0 -42 -36.5 -64.5t-82.5 -22.5q-50 0 -98 22z" />
    <glyph glyph-name="egrave" unicode="&#xe8;" horiz-adv-x="537" 
d="M487 233h-389q-3 -23 -3 -45q0 -57 39.5 -91t94.5 -34q112 0 149 99h85q-20 -84 -83.5 -129t-150.5 -45q-61 0 -106 19.5t-68.5 51.5t-34 66t-10.5 71q0 145 78.5 239t187.5 94q219 0 219 -229q0 -27 -8 -67zM110 308h300q4 61 -25.5 103.5t-95.5 42.5q-71 0 -115 -40
t-64 -106zM285 732l67 -143h-67l-101 143h101z" />
    <glyph glyph-name="eacute" unicode="&#xe9;" horiz-adv-x="537" 
d="M487 233h-389q-3 -23 -3 -45q0 -57 39.5 -91t94.5 -34q112 0 149 99h85q-20 -84 -83.5 -129t-150.5 -45q-61 0 -106 19.5t-68.5 51.5t-34 66t-10.5 71q0 145 78.5 239t187.5 94q219 0 219 -229q0 -27 -8 -67zM110 308h300q4 61 -25.5 103.5t-95.5 42.5q-71 0 -115 -40
t-64 -106zM272 589l93 143h113l-136 -143h-70z" />
    <glyph glyph-name="ecircumflex" unicode="&#xea;" horiz-adv-x="537" 
d="M487 233h-389q-3 -23 -3 -45q0 -57 39.5 -91t94.5 -34q112 0 149 99h85q-20 -84 -83.5 -129t-150.5 -45q-61 0 -106 19.5t-68.5 51.5t-34 66t-10.5 71q0 145 78.5 239t187.5 94q219 0 219 -229q0 -27 -8 -67zM110 308h300q4 61 -25.5 103.5t-95.5 42.5q-71 0 -115 -40
t-64 -106zM152 589l133 143h86l75 -143h-74l-51 93l-87 -93h-82z" />
    <glyph glyph-name="edieresis" unicode="&#xeb;" horiz-adv-x="537" 
d="M487 233h-389q-3 -23 -3 -45q0 -57 39.5 -91t94.5 -34q112 0 149 99h85q-20 -84 -83.5 -129t-150.5 -45q-61 0 -106 19.5t-68.5 51.5t-34 66t-10.5 71q0 145 78.5 239t187.5 94q219 0 219 -229q0 -27 -8 -67zM110 308h300q4 61 -25.5 103.5t-95.5 42.5q-71 0 -115 -40
t-64 -106zM184 602l21 104h89l-21 -104h-89zM347 602l21 104h89l-21 -104h-89z" />
    <glyph glyph-name="igrave" unicode="&#xec;" horiz-adv-x="222" 
d="M80 0h-85l108 517h85zM121 732l67 -143h-67l-101 143h101z" />
    <glyph glyph-name="iacute" unicode="&#xed;" horiz-adv-x="222" 
d="M80 0h-85l108 517h85zM104 589l93 143h113l-136 -143h-70z" />
    <glyph glyph-name="icircumflex" unicode="&#xee;" horiz-adv-x="222" 
d="M80 0h-85l108 517h85zM7 589l133 143h86l75 -143h-74l-51 93l-87 -93h-82z" />
    <glyph glyph-name="idieresis" unicode="&#xef;" horiz-adv-x="222" 
d="M80 0h-85l108 517h85zM36 602l21 104h89l-21 -104h-89zM199 602l21 104h89l-21 -104h-89z" />
    <glyph glyph-name="eth" unicode="&#xf0;" horiz-adv-x="574" 
d="M464 734l44 -38l-108 -55q65 -63 97 -129t32 -170q0 -100 -32 -178.5t-100 -127t-162 -48.5q-100 0 -159 59.5t-59 151.5q0 126 79 216.5t210 90.5q81 0 129 -53h2q-13 44 -46.5 88t-62.5 64l-114 -57l-42 40l113 56q-26 20 -59 42l64 45q47 -30 69 -50zM300 431
q-62 0 -109 -38t-68 -89.5t-21 -103.5q0 -62 37 -99.5t105 -37.5q86 0 140.5 77t54.5 159q0 59 -36 95.5t-103 36.5z" />
    <glyph glyph-name="ntilde" unicode="&#xf1;" 
d="M-5 0l109 517h82l-16 -78h2q66 90 184 90q73 0 108.5 -32t35.5 -101q0 -34 -15 -101l-63 -295h-85l66 302q1 6 4.5 24t5.5 33t2 23q0 35 -25 53.5t-65 18.5q-73 0 -128 -60q-37 -32 -57 -108l-60 -286h-85zM222 608h-52q10 30 20 50.5t31 39.5t48 19q25 0 77 -25
q5 -2 14.5 -6.5t14 -6.5t13 -5t11.5 -3h11q15 0 25 6.5t14 12.5t12 22h51q-15 -49 -38 -79t-64 -30q-23 0 -75 24t-66 22q-33 0 -47 -41z" />
    <glyph glyph-name="ograve" unicode="&#xf2;" horiz-adv-x="574" 
d="M17 204q0 133 79 229t210 96q104 0 159.5 -55t55.5 -159q0 -133 -78 -230t-208 -97q-100 0 -159 60t-59 156zM102 205q0 -65 37 -103.5t105 -38.5q58 0 104 41t67 96t21 108q0 64 -34.5 105t-101.5 41q-62 0 -108.5 -40.5t-68 -96t-21.5 -112.5zM305 732l67 -143h-67
l-101 143h101z" />
    <glyph glyph-name="oacute" unicode="&#xf3;" horiz-adv-x="574" 
d="M17 204q0 133 79 229t210 96q104 0 159.5 -55t55.5 -159q0 -133 -78 -230t-208 -97q-100 0 -159 60t-59 156zM102 205q0 -65 37 -103.5t105 -38.5q58 0 104 41t67 96t21 108q0 64 -34.5 105t-101.5 41q-62 0 -108.5 -40.5t-68 -96t-21.5 -112.5zM293 589l93 143h113
l-136 -143h-70z" />
    <glyph glyph-name="ocircumflex" unicode="&#xf4;" horiz-adv-x="574" 
d="M17 204q0 133 79 229t210 96q104 0 159.5 -55t55.5 -159q0 -133 -78 -230t-208 -97q-100 0 -159 60t-59 156zM102 205q0 -65 37 -103.5t105 -38.5q58 0 104 41t67 96t21 108q0 64 -34.5 105t-101.5 41q-62 0 -108.5 -40.5t-68 -96t-21.5 -112.5zM185 589l133 143h86
l75 -143h-74l-51 93l-87 -93h-82z" />
    <glyph glyph-name="otilde" unicode="&#xf5;" horiz-adv-x="574" 
d="M17 204q0 133 79 229t210 96q104 0 159.5 -55t55.5 -159q0 -133 -78 -230t-208 -97q-100 0 -159 60t-59 156zM102 205q0 -65 37 -103.5t105 -38.5q58 0 104 41t67 96t21 108q0 64 -34.5 105t-101.5 41q-62 0 -108.5 -40.5t-68 -96t-21.5 -112.5zM230 608h-52
q10 30 20 50.5t31 39.5t48 19q25 0 77 -25q5 -2 14.5 -6.5t14 -6.5t13 -5t11.5 -3h11q15 0 25 6.5t14 12.5t12 22h51q-15 -49 -38 -79t-64 -30q-23 0 -75 24t-66 22q-33 0 -47 -41z" />
    <glyph glyph-name="odieresis" unicode="&#xf6;" horiz-adv-x="574" 
d="M17 204q0 133 79 229t210 96q104 0 159.5 -55t55.5 -159q0 -133 -78 -230t-208 -97q-100 0 -159 60t-59 156zM102 205q0 -65 37 -103.5t105 -38.5q58 0 104 41t67 96t21 108q0 64 -34.5 105t-101.5 41q-62 0 -108.5 -40.5t-68 -96t-21.5 -112.5zM204 602l21 104h89
l-21 -104h-89zM367 602l21 104h89l-21 -104h-89z" />
    <glyph glyph-name="divide" unicode="&#xf7;" horiz-adv-x="600" 
d="M236 47q0 26 19 45t45 19t45 -19t19 -45q0 -24 -19 -44t-44 -20q-26 0 -45.5 19t-19.5 45zM236 459q0 26 19 45t45 19t45 -19t19 -45q0 -24 -19 -44t-44 -20q-26 0 -45.5 19t-19.5 45zM48 219v68h504v-68h-504z" />
    <glyph glyph-name="oslash" unicode="&#xf8;" horiz-adv-x="574" 
d="M-30 13l77 70q-30 49 -30 121q0 133 79 229t210 96q111 0 165 -63l70 63l25 -28l-73 -66q28 -47 28 -120q0 -133 -78 -230t-208 -97q-110 0 -166 65l-75 -68zM113 142l295 267q-38 45 -108 45q-62 0 -108.5 -40.5t-68 -96t-21.5 -112.5q0 -39 10 -63h1zM425 374
l-295 -266q38 -45 114 -45q58 0 104 41t67 96t21 108q0 36 -11 66z" />
    <glyph glyph-name="ugrave" unicode="&#xf9;" 
d="M520 517l-109 -517h-82l16 78h-2q-66 -90 -184 -90q-73 0 -108.5 32t-35.5 101q0 34 15 101l63 295h85l-66 -302q-12 -46 -12 -80q0 -35 25 -53.5t65 -18.5q68 0 119 49.5t66 118.5l60 286h85zM286 732l67 -143h-67l-101 143h101z" />
    <glyph glyph-name="uacute" unicode="&#xfa;" 
d="M520 517l-109 -517h-82l16 78h-2q-66 -90 -184 -90q-73 0 -108.5 32t-35.5 101q0 34 15 101l63 295h85l-66 -302q-12 -46 -12 -80q0 -35 25 -53.5t65 -18.5q68 0 119 49.5t66 118.5l60 286h85zM275 589l93 143h113l-136 -143h-70z" />
    <glyph glyph-name="ucircumflex" unicode="&#xfb;" 
d="M520 517l-109 -517h-82l16 78h-2q-66 -90 -184 -90q-73 0 -108.5 32t-35.5 101q0 34 15 101l63 295h85l-66 -302q-12 -46 -12 -80q0 -35 25 -53.5t65 -18.5q68 0 119 49.5t66 118.5l60 286h85zM169 589l133 143h86l75 -143h-74l-51 93l-87 -93h-82z" />
    <glyph glyph-name="udieresis" unicode="&#xfc;" 
d="M520 517l-109 -517h-82l16 78h-2q-66 -90 -184 -90q-73 0 -108.5 32t-35.5 101q0 34 15 101l63 295h85l-66 -302q-12 -46 -12 -80q0 -35 25 -53.5t65 -18.5q68 0 119 49.5t66 118.5l60 286h85zM187 602l21 104h89l-21 -104h-89zM350 602l21 104h89l-21 -104h-89z" />
    <glyph glyph-name="yacute" unicode="&#xfd;" horiz-adv-x="481" 
d="M505 517l-342 -605q-21 -32 -33 -48.5t-32.5 -36.5t-45 -28.5t-56.5 -8.5q-33 0 -59 13l15 69q23 -14 49 -14q46 0 80 56l52 86l-91 517h91l60 -411h2l217 411h93zM254 589l93 143h113l-136 -143h-70z" />
    <glyph glyph-name="thorn" unicode="&#xfe;" horiz-adv-x="593" 
d="M-49 -198l191 912h85l-63 -271h2q37 48 77 67t94 19q97 0 150 -58t53 -154q0 -126 -79.5 -227.5t-207.5 -101.5q-55 0 -101.5 22t-59.5 69h-2l-55 -277h-84zM455 317q0 137 -133 137q-61 0 -109 -42.5t-70.5 -100t-22.5 -114.5q0 -60 34.5 -97t95.5 -37q94 0 149.5 79
t55.5 175z" />
    <glyph glyph-name="ydieresis" unicode="&#xff;" horiz-adv-x="481" 
d="M505 517l-342 -605q-21 -32 -33 -48.5t-32.5 -36.5t-45 -28.5t-56.5 -8.5q-33 0 -59 13l15 69q23 -14 49 -14q46 0 80 56l52 86l-91 517h91l60 -411h2l217 411h93zM160 602l21 104h89l-21 -104h-89zM323 602l21 104h89l-21 -104h-89z" />
    <glyph glyph-name="Amacron" unicode="&#x100;" horiz-adv-x="667" 
d="M-55 0l430 714h104l129 -714h-98l-33 215h-301l-125 -215h-106zM410 630l-191 -335h246l-53 335h-2zM297 817l12 55h269l-11 -55h-270z" />
    <glyph glyph-name="amacron" unicode="&#x101;" horiz-adv-x="519" 
d="M138 361h-85q11 82 74 125t150 43q189 0 189 -132q0 -30 -16 -94l-33 -141q-1 -7 -5 -22t-6.5 -28t-2.5 -24q0 -32 25 -32q8 0 27 7l-13 -63q-22 -12 -52 -12q-35 0 -53 19.5t-14 53.5l-2 2q-56 -75 -173 -75q-70 0 -114 35.5t-44 110.5q0 35 10 62t31 44.5t41 28.5
t54 18t55.5 10t58.5 6q7 1 11 1q33 3 49 5t35 7.5t27 13.5t13.5 21.5t5.5 34.5q0 37 -31 52.5t-73 15.5q-53 0 -92 -23t-47 -70zM75 135q0 -34 27 -53t66 -19q101 0 145 68q10 14 17.5 32t11 30t9 37t7.5 34h-2q-22 -16 -73 -23.5t-94.5 -11t-78 -26.5t-35.5 -68zM183 627
l12 55h269l-11 -55h-270z" />
    <glyph glyph-name="Abreve" unicode="&#x102;" horiz-adv-x="667" 
d="M-55 0l430 714h104l129 -714h-98l-33 215h-301l-125 -215h-106zM410 630l-191 -335h246l-53 335h-2zM293 920h45q1 -84 94 -84q49 0 76 19.5t41 64.5h45q-9 -66 -54 -102.5t-112 -36.5t-102 35.5t-33 103.5z" />
    <glyph glyph-name="abreve" unicode="&#x103;" horiz-adv-x="519" 
d="M138 361h-85q11 82 74 125t150 43q189 0 189 -132q0 -30 -16 -94l-33 -141q-1 -7 -5 -22t-6.5 -28t-2.5 -24q0 -32 25 -32q8 0 27 7l-13 -63q-22 -12 -52 -12q-35 0 -53 19.5t-14 53.5l-2 2q-56 -75 -173 -75q-70 0 -114 35.5t-44 110.5q0 35 10 62t31 44.5t41 28.5
t54 18t55.5 10t58.5 6q7 1 11 1q33 3 49 5t35 7.5t27 13.5t13.5 21.5t5.5 34.5q0 37 -31 52.5t-73 15.5q-53 0 -92 -23t-47 -70zM75 135q0 -34 27 -53t66 -19q101 0 145 68q10 14 17.5 32t11 30t9 37t7.5 34h-2q-22 -16 -73 -23.5t-94.5 -11t-78 -26.5t-35.5 -68zM176 730
h45q1 -84 94 -84q49 0 76 19.5t41 64.5h45q-9 -66 -54 -102.5t-112 -36.5t-102 35.5t-33 103.5z" />
    <glyph glyph-name="Aogonek" unicode="&#x104;" horiz-adv-x="667" 
d="M608 0h-31q-40 -25 -70 -51q-53 -45 -53 -72q0 -37 37 -37q40 0 72 24l37 -12q-29 -35 -57 -48.5t-68 -13.5q-89 0 -89 71q0 64 124 139l-33 215h-301l-125 -215h-106l430 714h104zM410 630l-191 -335h246l-53 335h-2z" />
    <glyph glyph-name="aogonek" unicode="&#x105;" horiz-adv-x="519" 
d="M138 361h-85q11 82 74 125t150 43q189 0 189 -132q0 -30 -16 -94l-33 -141q-1 -7 -5 -22t-6.5 -28t-2.5 -24q0 -32 25 -32q3 0 13 2l14 5l-13 -63q-22 -12 -52 -12h-5q-2 -2 -7.5 -5.5t-8.5 -5.5q-30 -21 -59 -50.5t-29 -49.5q0 -37 37 -37q40 0 72 24l37 -12
q-29 -35 -57 -48.5t-68 -13.5q-89 0 -89 71q0 50 78 109q17 12 50 33l-4 4q-18 20 -14 54l-2 2q-56 -75 -173 -75q-70 0 -114 35.5t-44 110.5q0 35 10 62t31 44.5t41 28.5t54 18t55.5 10t58.5 6q7 1 11 1q33 3 49 5t35 7.5t27 13.5t13.5 21.5t5.5 34.5q0 37 -31 52.5
t-73 15.5q-53 0 -92 -23t-47 -70zM75 135q0 -34 27 -53t66 -19q101 0 145 68q10 14 17.5 32t11 30t9 37t7.5 34h-2q-22 -16 -73 -23.5t-94.5 -11t-78 -26.5t-35.5 -68z" />
    <glyph glyph-name="Cacute" unicode="&#x106;" horiz-adv-x="722" 
d="M565 241h95q-28 -123 -107.5 -190.5t-208.5 -67.5q-146 0 -226 82.5t-80 230.5q0 117 46 215t137 159t209 61q121 0 196.5 -64t75.5 -183h-95q0 82 -48 124.5t-129 42.5q-95 0 -164.5 -54t-101 -132.5t-31.5 -168.5q0 -108 53.5 -170.5t157.5 -62.5q172 0 221 178z
M411 779l93 143h113l-136 -143h-70z" />
    <glyph glyph-name="cacute" unicode="&#x107;" horiz-adv-x="537" 
d="M501 353h-85q0 48 -29 74.5t-80 26.5q-92 0 -146.5 -75t-54.5 -168q0 -66 30.5 -107t97.5 -41q54 0 93.5 28.5t57.5 77.5h85q-23 -87 -84.5 -134t-151.5 -47q-104 0 -158.5 58.5t-54.5 164.5q0 131 77 224.5t209 93.5q90 0 140.5 -43.5t53.5 -132.5zM285 589l93 143h113
l-136 -143h-70z" />
    <glyph glyph-name="Ccircumflex" unicode="&#x108;" horiz-adv-x="722" 
d="M565 241h95q-28 -123 -107.5 -190.5t-208.5 -67.5q-146 0 -226 82.5t-80 230.5q0 117 46 215t137 159t209 61q121 0 196.5 -64t75.5 -183h-95q0 82 -48 124.5t-129 42.5q-95 0 -164.5 -54t-101 -132.5t-31.5 -168.5q0 -108 53.5 -170.5t157.5 -62.5q172 0 221 178z
M301 779l133 143h86l75 -143h-74l-51 93l-87 -93h-82z" />
    <glyph glyph-name="ccircumflex" unicode="&#x109;" horiz-adv-x="537" 
d="M501 353h-85q0 48 -29 74.5t-80 26.5q-92 0 -146.5 -75t-54.5 -168q0 -66 30.5 -107t97.5 -41q54 0 93.5 28.5t57.5 77.5h85q-23 -87 -84.5 -134t-151.5 -47q-104 0 -158.5 58.5t-54.5 164.5q0 131 77 224.5t209 93.5q90 0 140.5 -43.5t53.5 -132.5zM169 589l133 143h86
l75 -143h-74l-51 93l-87 -93h-82z" />
    <glyph glyph-name="Cdotaccent" unicode="&#x10a;" horiz-adv-x="722" 
d="M565 241h95q-28 -123 -107.5 -190.5t-208.5 -67.5q-146 0 -226 82.5t-80 230.5q0 117 46 215t137 159t209 61q121 0 196.5 -64t75.5 -183h-95q0 82 -48 124.5t-129 42.5q-95 0 -164.5 -54t-101 -132.5t-31.5 -168.5q0 -108 53.5 -170.5t157.5 -62.5q172 0 221 178z
M395 792l21 104h89l-21 -104h-89z" />
    <glyph glyph-name="cdotaccent" unicode="&#x10b;" horiz-adv-x="537" 
d="M501 353h-85q0 48 -29 74.5t-80 26.5q-92 0 -146.5 -75t-54.5 -168q0 -66 30.5 -107t97.5 -41q54 0 93.5 28.5t57.5 77.5h85q-23 -87 -84.5 -134t-151.5 -47q-104 0 -158.5 58.5t-54.5 164.5q0 131 77 224.5t209 93.5q90 0 140.5 -43.5t53.5 -132.5zM274 602l21 104h89
l-21 -104h-89z" />
    <glyph glyph-name="Ccaron" unicode="&#x10c;" horiz-adv-x="722" 
d="M565 241h95q-28 -123 -107.5 -190.5t-208.5 -67.5q-146 0 -226 82.5t-80 230.5q0 117 46 215t137 159t209 61q121 0 196.5 -64t75.5 -183h-95q0 82 -48 124.5t-129 42.5q-95 0 -164.5 -54t-101 -132.5t-31.5 -168.5q0 -108 53.5 -170.5t157.5 -62.5q172 0 221 178z
M622 922l-135 -143h-86l-77 143h76l51 -93l93 93h78z" />
    <glyph glyph-name="ccaron" unicode="&#x10d;" horiz-adv-x="537" 
d="M501 353h-85q0 48 -29 74.5t-80 26.5q-92 0 -146.5 -75t-54.5 -168q0 -66 30.5 -107t97.5 -41q54 0 93.5 28.5t57.5 77.5h85q-23 -87 -84.5 -134t-151.5 -47q-104 0 -158.5 58.5t-54.5 164.5q0 131 77 224.5t209 93.5q90 0 140.5 -43.5t53.5 -132.5zM497 732l-135 -143
h-86l-77 143h76l51 -93l93 93h78z" />
    <glyph glyph-name="Dcaron" unicode="&#x10e;" horiz-adv-x="704" 
d="M234 634l-117 -554h165q97 0 167 52.5t102 130.5t32 168q0 203 -197 203h-152zM7 0l151 714h250q131 0 200.5 -72t69.5 -201q0 -201 -109.5 -321t-287.5 -120h-274zM564 922l-135 -143h-86l-77 143h76l51 -93l93 93h78z" />
    <glyph glyph-name="dcaron" unicode="&#x10f;" horiz-adv-x="670" 
d="M606 714l-151 -714h-80l18 74h-2q-37 -48 -77 -67t-94 -19q-97 0 -150 58t-53 154q0 126 79.5 227.5t207.5 101.5q35 0 66 -8t58 -29t37 -54h2l55 276h84zM102 200q0 -137 133 -137q61 0 109 42.5t70.5 100t22.5 114.5q0 60 -34.5 97t-95.5 37q-94 0 -149.5 -79
t-55.5 -175zM630 571l53 143h113l-100 -143h-66z" />
    <glyph glyph-name="Dcroat" unicode="&#x110;" horiz-adv-x="704" 
d="M234 634l-48 -227h200l-14 -68h-200l-55 -259h165q97 0 167 52.5t102 130.5t32 168q0 203 -197 203h-152zM7 0l72 339h-66l14 68h66l65 307h250q131 0 200.5 -72t69.5 -201q0 -201 -109.5 -321t-287.5 -120h-274z" />
    <glyph glyph-name="dcroat" unicode="&#x111;" horiz-adv-x="603" 
d="M576 571l-121 -571h-80l18 74h-2q-37 -48 -77 -67t-94 -19q-97 0 -150 58t-53 154q0 126 79.5 227.5t207.5 101.5q35 0 66 -8t58 -29t37 -54h2l26 133h-118l12 55h117l18 88h84l-19 -88h84l-11 -55h-84zM102 200q0 -137 133 -137q61 0 109 42.5t70.5 100t22.5 114.5
q0 60 -34.5 97t-95.5 37q-94 0 -149.5 -79t-55.5 -175z" />
    <glyph glyph-name="Emacron" unicode="&#x112;" horiz-adv-x="611" 
d="M7 0l151 714h492l-16 -80h-397l-48 -227h370l-16 -80h-371l-52 -247h402l-18 -80h-497zM277 817l12 55h269l-11 -55h-270z" />
    <glyph glyph-name="emacron" unicode="&#x113;" horiz-adv-x="537" 
d="M487 233h-389q-3 -23 -3 -45q0 -57 39.5 -91t94.5 -34q112 0 149 99h85q-20 -84 -83.5 -129t-150.5 -45q-61 0 -106 19.5t-68.5 51.5t-34 66t-10.5 71q0 145 78.5 239t187.5 94q219 0 219 -229q0 -27 -8 -67zM110 308h300q4 61 -25.5 103.5t-95.5 42.5q-71 0 -115 -40
t-64 -106zM175 627l12 55h269l-11 -55h-270z" />
    <glyph glyph-name="Ebreve" unicode="&#x114;" horiz-adv-x="611" 
d="M7 0l151 714h492l-16 -80h-397l-48 -227h370l-16 -80h-371l-52 -247h402l-18 -80h-497zM275 920h45q1 -84 94 -84q49 0 76 19.5t41 64.5h45q-9 -66 -54 -102.5t-112 -36.5t-102 35.5t-33 103.5z" />
    <glyph glyph-name="ebreve" unicode="&#x115;" horiz-adv-x="537" 
d="M487 233h-389q-3 -23 -3 -45q0 -57 39.5 -91t94.5 -34q112 0 149 99h85q-20 -84 -83.5 -129t-150.5 -45q-61 0 -106 19.5t-68.5 51.5t-34 66t-10.5 71q0 145 78.5 239t187.5 94q219 0 219 -229q0 -27 -8 -67zM110 308h300q4 61 -25.5 103.5t-95.5 42.5q-71 0 -115 -40
t-64 -106zM171 730h45q1 -84 94 -84q49 0 76 19.5t41 64.5h45q-9 -66 -54 -102.5t-112 -36.5t-102 35.5t-33 103.5z" />
    <glyph glyph-name="Edotaccent" unicode="&#x116;" horiz-adv-x="611" 
d="M7 0l151 714h492l-16 -80h-397l-48 -227h370l-16 -80h-371l-52 -247h402l-18 -80h-497zM370 792l21 104h89l-21 -104h-89z" />
    <glyph glyph-name="edotaccent" unicode="&#x117;" horiz-adv-x="537" 
d="M487 233h-389q-3 -23 -3 -45q0 -57 39.5 -91t94.5 -34q112 0 149 99h85q-20 -84 -83.5 -129t-150.5 -45q-61 0 -106 19.5t-68.5 51.5t-34 66t-10.5 71q0 145 78.5 239t187.5 94q219 0 219 -229q0 -27 -8 -67zM110 308h300q4 61 -25.5 103.5t-95.5 42.5q-71 0 -115 -40
t-64 -106zM259 602l21 104h89l-21 -104h-89z" />
    <glyph glyph-name="Eogonek" unicode="&#x118;" horiz-adv-x="611" 
d="M504 0h-52q-40 -25 -70 -51q-53 -45 -53 -72q0 -37 37 -37q40 0 72 24l37 -12q-29 -35 -57 -48.5t-68 -13.5q-89 0 -89 71q0 64 124 139h-378l151 714h492l-16 -80h-397l-48 -227h370l-16 -80h-371l-52 -247h402z" />
    <glyph glyph-name="eogonek" unicode="&#x119;" horiz-adv-x="537" 
d="M487 233h-389q-3 -23 -3 -45q0 -57 39.5 -91t94.5 -34q112 0 149 99h85q-15 -63 -55.5 -104.5t-98.5 -58.5q-23 -7 -43 -8q-3 -2 -9.5 -7t-9.5 -7q-30 -21 -59 -50.5t-29 -49.5q0 -37 37 -37q40 0 72 24l37 -12q-29 -35 -57 -48.5t-68 -13.5q-89 0 -89 71q0 50 78 109
q5 3 14 10t14 10q-43 3 -75 18q-112 53 -112 188q0 145 78.5 239t187.5 94q219 0 219 -229q0 -27 -8 -67zM110 308h300q4 61 -25.5 103.5t-95.5 42.5q-71 0 -115 -40t-64 -106z" />
    <glyph glyph-name="Ecaron" unicode="&#x11a;" horiz-adv-x="611" 
d="M7 0l151 714h492l-16 -80h-397l-48 -227h370l-16 -80h-371l-52 -247h402l-18 -80h-497zM585 922l-135 -143h-86l-77 143h76l51 -93l93 93h78z" />
    <glyph glyph-name="ecaron" unicode="&#x11b;" horiz-adv-x="537" 
d="M487 233h-389q-3 -23 -3 -45q0 -57 39.5 -91t94.5 -34q112 0 149 99h85q-20 -84 -83.5 -129t-150.5 -45q-61 0 -106 19.5t-68.5 51.5t-34 66t-10.5 71q0 145 78.5 239t187.5 94q219 0 219 -229q0 -27 -8 -67zM110 308h300q4 61 -25.5 103.5t-95.5 42.5q-71 0 -115 -40
t-64 -106zM481 732l-135 -143h-86l-77 143h76l51 -93l93 93h78z" />
    <glyph glyph-name="Gcircumflex" unicode="&#x11c;" horiz-adv-x="759" 
d="M563 0l-6 71q-81 -88 -213 -88q-146 0 -226 82.5t-80 230.5q0 117 46 215t137 159t209 61q126 0 206.5 -60.5t80.5 -178.5h-95q0 78 -54.5 118.5t-137.5 40.5q-95 0 -164.5 -54t-101 -132.5t-31.5 -168.5q0 -108 53.5 -170.5t157.5 -62.5q108 0 169 60.5t89 172.5h-228
l16 80h311l-78 -376h-60zM306 779l133 143h86l75 -143h-74l-51 93l-87 -93h-82z" />
    <glyph glyph-name="gcircumflex" unicode="&#x11d;" horiz-adv-x="574" 
d="M552 517l-93 -442q-22 -99 -40 -141q-61 -144 -235 -144q-87 0 -145.5 39.5t-60.5 120.5h85q6 -85 130 -85q27 0 50 6.5t39.5 16t30.5 27.5t22.5 32.5t17.5 40t13.5 41.5t11.5 44l-2 2q-52 -79 -161 -79q-93 0 -143.5 59t-50.5 155q0 123 75 221t194 98q58 0 105 -29
t59 -76v-2h2l16 95h80zM106 210q0 -59 33 -99t94 -40q46 0 83 24t59 61.5t34 79.5t12 83q0 63 -33.5 99t-98.5 36q-56 0 -99.5 -42t-63.5 -96.5t-20 -105.5zM204 589l133 143h86l75 -143h-74l-51 93l-87 -93h-82z" />
    <glyph glyph-name="Gbreve" unicode="&#x11e;" horiz-adv-x="759" 
d="M563 0l-6 71q-81 -88 -213 -88q-146 0 -226 82.5t-80 230.5q0 117 46 215t137 159t209 61q126 0 206.5 -60.5t80.5 -178.5h-95q0 78 -54.5 118.5t-137.5 40.5q-95 0 -164.5 -54t-101 -132.5t-31.5 -168.5q0 -108 53.5 -170.5t157.5 -62.5q108 0 169 60.5t89 172.5h-228
l16 80h311l-78 -376h-60zM309 920h45q1 -84 94 -84q49 0 76 19.5t41 64.5h45q-9 -66 -54 -102.5t-112 -36.5t-102 35.5t-33 103.5z" />
    <glyph glyph-name="gbreve" unicode="&#x11f;" horiz-adv-x="574" 
d="M552 517l-93 -442q-22 -99 -40 -141q-61 -144 -235 -144q-87 0 -145.5 39.5t-60.5 120.5h85q6 -85 130 -85q27 0 50 6.5t39.5 16t30.5 27.5t22.5 32.5t17.5 40t13.5 41.5t11.5 44l-2 2q-52 -79 -161 -79q-93 0 -143.5 59t-50.5 155q0 123 75 221t194 98q58 0 105 -29
t59 -76v-2h2l16 95h80zM106 210q0 -59 33 -99t94 -40q46 0 83 24t59 61.5t34 79.5t12 83q0 63 -33.5 99t-98.5 36q-56 0 -99.5 -42t-63.5 -96.5t-20 -105.5zM208 730h45q1 -84 94 -84q49 0 76 19.5t41 64.5h45q-9 -66 -54 -102.5t-112 -36.5t-102 35.5t-33 103.5z" />
    <glyph glyph-name="Gdotaccent" unicode="&#x120;" horiz-adv-x="759" 
d="M563 0l-6 71q-81 -88 -213 -88q-146 0 -226 82.5t-80 230.5q0 117 46 215t137 159t209 61q126 0 206.5 -60.5t80.5 -178.5h-95q0 78 -54.5 118.5t-137.5 40.5q-95 0 -164.5 -54t-101 -132.5t-31.5 -168.5q0 -108 53.5 -170.5t157.5 -62.5q108 0 169 60.5t89 172.5h-228
l16 80h311l-78 -376h-60zM396 792l21 104h89l-21 -104h-89z" />
    <glyph glyph-name="gdotaccent" unicode="&#x121;" horiz-adv-x="574" 
d="M552 517l-93 -442q-22 -99 -40 -141q-61 -144 -235 -144q-87 0 -145.5 39.5t-60.5 120.5h85q6 -85 130 -85q27 0 50 6.5t39.5 16t30.5 27.5t22.5 32.5t17.5 40t13.5 41.5t11.5 44l-2 2q-52 -79 -161 -79q-93 0 -143.5 59t-50.5 155q0 123 75 221t194 98q58 0 105 -29
t59 -76v-2h2l16 95h80zM106 210q0 -59 33 -99t94 -40q46 0 83 24t59 61.5t34 79.5t12 83q0 63 -33.5 99t-98.5 36q-56 0 -99.5 -42t-63.5 -96.5t-20 -105.5zM290 602l21 104h89l-21 -104h-89z" />
    <glyph glyph-name="Gcommaaccent" unicode="&#x122;" horiz-adv-x="759" 
d="M563 0l-6 71q-81 -88 -213 -88q-146 0 -226 82.5t-80 230.5q0 117 46 215t137 159t209 61q126 0 206.5 -60.5t80.5 -178.5h-95q0 78 -54.5 118.5t-137.5 40.5q-95 0 -164.5 -54t-101 -132.5t-31.5 -168.5q0 -108 53.5 -170.5t157.5 -62.5q108 0 169 60.5t89 172.5h-228
l16 80h311l-78 -376h-60zM253 -138l19 88h111q-14 -79 -18 -91q-5 -17 -13 -29q-23 -39 -101 -40l8 35q21 5 30.5 12t15.5 25h-52z" />
    <glyph glyph-name="gcommaaccent" unicode="&#x123;" horiz-adv-x="574" 
d="M552 517l-93 -442q-22 -99 -40 -141q-61 -144 -235 -144q-87 0 -145.5 39.5t-60.5 120.5h85q6 -85 130 -85q27 0 50 6.5t39.5 16t30.5 27.5t22.5 32.5t17.5 40t13.5 41.5t11.5 44l-2 2q-52 -79 -161 -79q-93 0 -143.5 59t-50.5 155q0 123 75 221t194 98q58 0 105 -29
t59 -76v-2h2l16 95h80zM106 210q0 -59 33 -99t94 -40q46 0 83 24t59 61.5t34 79.5t12 83q0 63 -33.5 99t-98.5 36q-56 0 -99.5 -42t-63.5 -96.5t-20 -105.5zM415 714l-19 -88h-111q14 79 18 91q5 17 13 29q23 39 101 40l-8 -35q-21 -5 -30.5 -12t-15.5 -25h52z" />
    <glyph glyph-name="Hcircumflex" unicode="&#x124;" horiz-adv-x="722" 
d="M7 0l150 714h96l-65 -307h374l64 307h95l-150 -714h-95l69 327h-374l-69 -327h-95zM295 779l133 143h86l75 -143h-74l-51 93l-87 -93h-82z" />
    <glyph glyph-name="hcircumflex" unicode="&#x125;" 
d="M-5 0l151 714h85l-61 -273l2 -2q66 90 184 90q73 0 108.5 -32t35.5 -101q0 -34 -15 -101l-63 -295h-85l66 302q1 6 4.5 24t5.5 33t2 23q0 35 -25 53.5t-65 18.5q-73 0 -128 -60q-37 -32 -57 -108l-60 -286h-85zM215 779l133 143h86l75 -143h-74l-51 93l-87 -93h-82z" />
    <glyph glyph-name="Hbar" unicode="&#x126;" horiz-adv-x="722" 
d="M7 0l150 714h96l-42 -197h374l41 197h95l-150 -714h-95l67 316h-374l-67 -316h-95zM186 396h374l13 66h-373z" />
    <glyph glyph-name="hbar" unicode="&#x127;" horiz-adv-x="566" 
d="M41 571l12 55h84l19 88h85l-20 -88h106l-11 -55h-107l-29 -130l2 -2q66 90 184 90q73 0 108.5 -32t35.5 -101q0 -34 -15 -101l-63 -295h-85l66 302q1 6 4.5 24t5.5 33t2 23q0 35 -25 53.5t-65 18.5q-73 0 -128 -60q-37 -32 -57 -108l-60 -286h-85l121 571h-85z" />
    <glyph glyph-name="Itilde" unicode="&#x128;" horiz-adv-x="259" 
d="M7 0l150 714h95l-150 -714h-95zM107 798h-52q10 30 20 50.5t31 39.5t48 19q25 0 77 -25q5 -2 14.5 -6.5t14 -6.5t13 -5t11.5 -3h11q15 0 25 6.5t14 12.5t12 22h51q-15 -49 -38 -79t-64 -30q-23 0 -75 24t-66 22q-33 0 -47 -41z" />
    <glyph glyph-name="itilde" unicode="&#x129;" horiz-adv-x="222" 
d="M80 0h-85l108 517h85zM50 608h-52q10 30 20 50.5t31 39.5t48 19q25 0 77 -25q5 -2 14.5 -6.5t14 -6.5t13 -5t11.5 -3h11q15 0 25 6.5t14 12.5t12 22h51q-15 -49 -38 -79t-64 -30q-23 0 -75 24t-66 22q-33 0 -47 -41z" />
    <glyph glyph-name="Imacron" unicode="&#x12a;" horiz-adv-x="259" 
d="M7 0l150 714h95l-150 -714h-95zM85 817l12 55h269l-11 -55h-270z" />
    <glyph glyph-name="imacron" unicode="&#x12b;" horiz-adv-x="222" 
d="M80 0h-85l108 517h85zM26 627l12 55h269l-11 -55h-270z" />
    <glyph glyph-name="Iogonek" unicode="&#x12e;" horiz-adv-x="259" 
d="M252 714l-150 -714q-41 -29 -64 -51q-47 -47 -47 -72q0 -37 33 -37q36 0 65 24l33 -12q-26 -35 -51 -48.5t-61 -13.5q-80 0 -80 71q0 62 111 139h-34l150 714h95z" />
    <glyph glyph-name="iogonek" unicode="&#x12f;" horiz-adv-x="222" 
d="M188 517l-108 -517q-41 -28 -67 -51q-50 -44 -50 -72q0 -37 35 -37q38 0 68 24l36 -12q-27 -35 -54 -48.5t-65 -13.5q-85 0 -85 71q0 63 118 139h-21l108 517h85zM230 714l-22 -104h-86l22 104h86z" />
    <glyph glyph-name="Idotaccent" unicode="&#x130;" horiz-adv-x="259" 
d="M7 0l150 714h95l-150 -714h-95zM175 792l21 104h89l-21 -104h-89z" />
    <glyph glyph-name="dotlessi" unicode="&#x131;" horiz-adv-x="222" 
d="M80 0h-85l108 517h85z" />
    <glyph glyph-name="Jcircumflex" unicode="&#x134;" horiz-adv-x="519" 
d="M525 714l-113 -538q-22 -98 -71.5 -145.5t-151.5 -47.5q-89 0 -143.5 40t-54.5 112q0 49 9 99h96q-9 -42 -10 -74q0 -97 105 -97q34 0 59 13.5t39.5 40t22.5 50t15 58.5l104 489h94zM335 779l133 143h86l75 -143h-74l-51 93l-87 -93h-82z" />
    <glyph glyph-name="jcircumflex" unicode="&#x135;" horiz-adv-x="222" 
d="M-120 -192l15 75q22 -6 33 -6q26 0 37.5 19.5t24.5 77.5l113 543h85l-130 -614q-24 -101 -122 -101q-33 0 -56 6zM0 589l133 143h86l75 -143h-74l-51 93l-87 -93h-82z" />
    <glyph glyph-name="Kcommaaccent" unicode="&#x136;" horiz-adv-x="667" 
d="M7 0l151 714h95l-75 -352l2 -2l404 354h127l-344 -294l229 -420h-105l-195 362l-143 -121l-51 -241h-95zM196 -138l19 88h111q-14 -79 -18 -91q-5 -17 -13 -29q-23 -39 -101 -40l8 35q21 5 30.5 12t15.5 25h-52z" />
    <glyph glyph-name="kcommaaccent" unicode="&#x137;" horiz-adv-x="481" 
d="M-5 0l151 714h84l-89 -420l2 -2l260 225h111l-225 -191l128 -326h-95l-101 275l-102 -91l-39 -184h-85zM115 -138l19 88h111q-14 -79 -18 -91q-5 -17 -13 -29q-23 -39 -101 -40l8 35q21 5 30.5 12t15.5 25h-52z" />
    <glyph glyph-name="Lacute" unicode="&#x139;" 
d="M7 0l150 714h95l-132 -634h377l-17 -80h-473zM177 779l93 143h113l-136 -143h-70z" />
    <glyph glyph-name="lacute" unicode="&#x13a;" horiz-adv-x="222" 
d="M-5 0l150 714h85l-150 -714h-85zM152 779l93 143h113l-136 -143h-70z" />
    <glyph glyph-name="Lcommaaccent" unicode="&#x13b;" 
d="M7 0l150 714h95l-132 -634h377l-17 -80h-473zM158 -138l19 88h111q-14 -79 -18 -91q-5 -17 -13 -29q-23 -39 -101 -40l8 35q21 5 30.5 12t15.5 25h-52z" />
    <glyph glyph-name="lcommaaccent" unicode="&#x13c;" horiz-adv-x="222" 
d="M-5 0l150 714h85l-150 -714h-85zM-46 -138l19 88h111q-14 -79 -18 -91q-5 -17 -13 -29q-23 -39 -101 -40l8 35q21 5 30.5 12t15.5 25h-52z" />
    <glyph glyph-name="Lcaron" unicode="&#x13d;" 
d="M7 0l150 714h95l-132 -634h377l-17 -80h-473zM307 571l53 143h113l-100 -143h-66z" />
    <glyph glyph-name="lcaron" unicode="&#x13e;" horiz-adv-x="294" 
d="M-5 0l150 714h85l-150 -714h-85zM254 571l53 143h113l-100 -143h-66z" />
    <glyph glyph-name="Ldot" unicode="&#x13f;" 
d="M7 0l150 714h95l-132 -634h377l-17 -80h-473zM321 413l21 104h89l-21 -104h-89z" />
    <glyph glyph-name="ldot" unicode="&#x140;" horiz-adv-x="340" 
d="M-5 0l150 714h85l-150 -714h-85zM228 413l21 104h89l-21 -104h-89z" />
    <glyph glyph-name="Lslash" unicode="&#x141;" 
d="M7 0l50 235l-78 -48l17 82l78 48l83 397h95l-69 -330l221 136l-17 -83l-221 -135l-46 -222h377l-17 -80h-473z" />
    <glyph glyph-name="lslash" unicode="&#x142;" horiz-adv-x="222" 
d="M145 714h85l-53 -232l2 -2l66 52l-10 -78l-74 -57l-81 -397h-85l68 322l-70 -54l10 77l74 57z" />
    <glyph glyph-name="Nacute" unicode="&#x143;" horiz-adv-x="722" 
d="M7 0l151 714h102l255 -591h2l119 591h92l-151 -714h-102l-253 587h-2l-121 -587h-92zM407 779l93 143h113l-136 -143h-70z" />
    <glyph glyph-name="nacute" unicode="&#x144;" 
d="M-5 0l109 517h82l-16 -78h2q66 90 184 90q73 0 108.5 -32t35.5 -101q0 -34 -15 -101l-63 -295h-85l66 302q1 6 4.5 24t5.5 33t2 23q0 35 -25 53.5t-65 18.5q-73 0 -128 -60q-37 -32 -57 -108l-60 -286h-85zM259 589l93 143h113l-136 -143h-70z" />
    <glyph glyph-name="Ncommaaccent" unicode="&#x145;" horiz-adv-x="722" 
d="M7 0l151 714h102l255 -591h2l119 591h92l-151 -714h-102l-253 587h-2l-121 -587h-92zM216 -138l19 88h111q-14 -79 -18 -91q-5 -17 -13 -29q-23 -39 -101 -40l8 35q21 5 30.5 12t15.5 25h-52z" />
    <glyph glyph-name="ncommaaccent" unicode="&#x146;" 
d="M-5 0l109 517h82l-16 -78h2q66 90 184 90q73 0 108.5 -32t35.5 -101q0 -34 -15 -101l-63 -295h-85l66 302q1 6 4.5 24t5.5 33t2 23q0 35 -25 53.5t-65 18.5q-73 0 -128 -60q-37 -32 -57 -108l-60 -286h-85zM126 -138l19 88h111q-14 -79 -18 -91q-5 -17 -13 -29
q-23 -39 -101 -40l8 35q21 5 30.5 12t15.5 25h-52z" />
    <glyph glyph-name="Ncaron" unicode="&#x147;" horiz-adv-x="722" 
d="M7 0l151 714h102l255 -591h2l119 591h92l-151 -714h-102l-253 587h-2l-121 -587h-92zM620 922l-135 -143h-86l-77 143h76l51 -93l93 93h78z" />
    <glyph glyph-name="ncaron" unicode="&#x148;" 
d="M-5 0l109 517h82l-16 -78h2q66 90 184 90q73 0 108.5 -32t35.5 -101q0 -34 -15 -101l-63 -295h-85l66 302q1 6 4.5 24t5.5 33t2 23q0 35 -25 53.5t-65 18.5q-73 0 -128 -60q-37 -32 -57 -108l-60 -286h-85zM492 732l-135 -143h-86l-77 143h76l51 -93l93 93h78z" />
    <glyph glyph-name="Omacron" unicode="&#x14c;" horiz-adv-x="759" 
d="M133 296q0 -108 53.5 -170.5t157.5 -62.5q90 0 157.5 53t99.5 131.5t32 167.5q0 103 -53.5 169.5t-149.5 66.5q-95 0 -164.5 -54t-101 -132.5t-31.5 -168.5zM38 296q0 117 46 215t137 159t209 61q136 0 217 -90t81 -226q0 -113 -45.5 -211t-134.5 -159.5t-204 -61.5
q-146 0 -226 82.5t-80 230.5zM327 817l12 55h269l-11 -55h-270z" />
    <glyph glyph-name="omacron" unicode="&#x14d;" horiz-adv-x="574" 
d="M17 204q0 133 79 229t210 96q104 0 159.5 -55t55.5 -159q0 -133 -78 -230t-208 -97q-100 0 -159 60t-59 156zM102 205q0 -65 37 -103.5t105 -38.5q58 0 104 41t67 96t21 108q0 64 -34.5 105t-101.5 41q-62 0 -108.5 -40.5t-68 -96t-21.5 -112.5zM202 627l12 55h269
l-11 -55h-270z" />
    <glyph glyph-name="Obreve" unicode="&#x14e;" horiz-adv-x="759" 
d="M133 296q0 -108 53.5 -170.5t157.5 -62.5q90 0 157.5 53t99.5 131.5t32 167.5q0 103 -53.5 169.5t-149.5 66.5q-95 0 -164.5 -54t-101 -132.5t-31.5 -168.5zM38 296q0 117 46 215t137 159t209 61q136 0 217 -90t81 -226q0 -113 -45.5 -211t-134.5 -159.5t-204 -61.5
q-146 0 -226 82.5t-80 230.5zM320 920h45q1 -84 94 -84q49 0 76 19.5t41 64.5h45q-9 -66 -54 -102.5t-112 -36.5t-102 35.5t-33 103.5z" />
    <glyph glyph-name="obreve" unicode="&#x14f;" horiz-adv-x="574" 
d="M17 204q0 133 79 229t210 96q104 0 159.5 -55t55.5 -159q0 -133 -78 -230t-208 -97q-100 0 -159 60t-59 156zM102 205q0 -65 37 -103.5t105 -38.5q58 0 104 41t67 96t21 108q0 64 -34.5 105t-101.5 41q-62 0 -108.5 -40.5t-68 -96t-21.5 -112.5zM191 730h45q1 -84 94 -84
q49 0 76 19.5t41 64.5h45q-9 -66 -54 -102.5t-112 -36.5t-102 35.5t-33 103.5z" />
    <glyph glyph-name="Ohungarumlaut" unicode="&#x150;" horiz-adv-x="759" 
d="M133 296q0 -108 53.5 -170.5t157.5 -62.5q90 0 157.5 53t99.5 131.5t32 167.5q0 103 -53.5 169.5t-149.5 66.5q-95 0 -164.5 -54t-101 -132.5t-31.5 -168.5zM38 296q0 117 46 215t137 159t209 61q136 0 217 -90t81 -226q0 -113 -45.5 -211t-134.5 -159.5t-204 -61.5
q-146 0 -226 82.5t-80 230.5zM502 779l93 143h113l-136 -143h-70zM336 779l93 143h113l-136 -143h-70z" />
    <glyph glyph-name="ohungarumlaut" unicode="&#x151;" horiz-adv-x="574" 
d="M17 204q0 133 79 229t210 96q104 0 159.5 -55t55.5 -159q0 -133 -78 -230t-208 -97q-100 0 -159 60t-59 156zM102 205q0 -65 37 -103.5t105 -38.5q58 0 104 41t67 96t21 108q0 64 -34.5 105t-101.5 41q-62 0 -108.5 -40.5t-68 -96t-21.5 -112.5zM379 589l93 143h113
l-136 -143h-70zM213 589l93 143h113l-136 -143h-70z" />
    <glyph glyph-name="OE" unicode="&#x152;" horiz-adv-x="1074" 
d="M1106 714l-16 -80h-379l-48 -227h347l-16 -80h-347l-52 -247h384l-16 -80h-475l13 57h-2q-29 -36 -76.5 -55t-99.5 -19q-135 0 -208 89t-73 228q0 108 44.5 205.5t132.5 161.5t199 64q63 0 119.5 -24t86.5 -73l16 80h466zM538 257l56 277q8 42 -50 79.5t-117 37.5
q-69 0 -125.5 -31.5t-91.5 -83.5t-54 -115t-19 -129q0 -94 50 -161.5t141 -67.5t150 58q19 18 31.5 42.5t17 41.5t11.5 52z" />
    <glyph glyph-name="oe" unicode="&#x153;" horiz-adv-x="907" 
d="M667 454q-69 0 -115 -41t-60 -105h290q2 22 2 29q0 49 -30 83t-87 34zM102 195q0 -57 33.5 -94.5t94.5 -37.5q50 0 88 28.5t58.5 73t30.5 90.5t10 90q0 52 -33.5 80.5t-86.5 28.5q-60 0 -106 -43.5t-67.5 -101t-21.5 -114.5zM751 163h87q-29 -87 -93.5 -131t-156.5 -44
q-138 0 -179 102q-27 -48 -77 -75t-107 -27q-100 0 -154 50.5t-54 152.5q0 83 33.5 159.5t101 127.5t153.5 51q67 0 110.5 -22.5t63.5 -78.5q27 50 78.5 75.5t111.5 25.5q99 0 149.5 -54.5t50.5 -150.5q0 -40 -11 -91h-379q-7 -28 -7 -53q0 -58 34.5 -87.5t96.5 -29.5
q50 0 90.5 27.5t57.5 72.5z" />
    <glyph glyph-name="Racute" unicode="&#x154;" horiz-adv-x="685" 
d="M7 0l151 714h275q48 0 88 -9t74.5 -29t53.5 -56.5t19 -87.5q0 -72 -45.5 -127t-115.5 -65v-2q44 -14 61.5 -56t11.5 -99q-1 -17 -5.5 -47t-7 -48.5t0.5 -43t13 -44.5h-99q-18 55 2 153q15 86 -6.5 117.5t-62.5 34.5h-38h-211l-64 -305h-95zM236 634l-53 -249h214
q53 0 90 14.5t54.5 37.5t24.5 44.5t7 44.5q0 108 -140 108h-197zM352 779l93 143h113l-136 -143h-70z" />
    <glyph glyph-name="racute" unicode="&#x155;" horiz-adv-x="333" 
d="M-5 0l108 517h80l-25 -111h2q69 123 188 123h30l-20 -91q-4 1 -13 1h-12q-31 0 -51 -5q-66 -17 -110 -84q-26 -37 -43 -121l-49 -229h-85zM127 589l93 143h113l-136 -143h-70z" />
    <glyph glyph-name="Rcommaaccent" unicode="&#x156;" horiz-adv-x="685" 
d="M7 0l151 714h275q48 0 88 -9t74.5 -29t53.5 -56.5t19 -87.5q0 -72 -45.5 -127t-115.5 -65v-2q44 -14 61.5 -56t11.5 -99q-1 -17 -5.5 -47t-7 -48.5t0.5 -43t13 -44.5h-99q-18 55 2 153q15 86 -6.5 117.5t-62.5 34.5h-38h-211l-64 -305h-95zM236 634l-53 -249h214
q53 0 90 14.5t54.5 37.5t24.5 44.5t7 44.5q0 108 -140 108h-197zM205 -138l19 88h111q-14 -79 -18 -91q-5 -17 -13 -29q-23 -39 -101 -40l8 35q21 5 30.5 12t15.5 25h-52z" />
    <glyph glyph-name="rcommaaccent" unicode="&#x157;" horiz-adv-x="333" 
d="M-5 0l108 517h80l-25 -111h2q69 123 188 123h30l-20 -91q-4 1 -13 1h-12q-31 0 -51 -5q-66 -17 -110 -84q-26 -37 -43 -121l-49 -229h-85zM-45 -138l19 88h111q-14 -79 -18 -91q-5 -17 -13 -29q-23 -39 -101 -40l8 35q21 5 30.5 12t15.5 25h-52z" />
    <glyph glyph-name="Rcaron" unicode="&#x158;" horiz-adv-x="685" 
d="M7 0l151 714h275q48 0 88 -9t74.5 -29t53.5 -56.5t19 -87.5q0 -72 -45.5 -127t-115.5 -65v-2q44 -14 61.5 -56t11.5 -99q-1 -17 -5.5 -47t-7 -48.5t0.5 -43t13 -44.5h-99q-18 55 2 153q15 86 -6.5 117.5t-62.5 34.5h-38h-211l-64 -305h-95zM236 634l-53 -249h214
q53 0 90 14.5t54.5 37.5t24.5 44.5t7 44.5q0 108 -140 108h-197zM589 922l-135 -143h-86l-77 143h76l51 -93l93 93h78z" />
    <glyph glyph-name="rcaron" unicode="&#x159;" horiz-adv-x="333" 
d="M-5 0l108 517h80l-25 -111h2q69 123 188 123h30l-20 -91q-4 1 -13 1h-12q-31 0 -51 -5q-66 -17 -110 -84q-26 -37 -43 -121l-49 -229h-85zM416 732l-135 -143h-86l-77 143h76l51 -93l93 93h78z" />
    <glyph glyph-name="Sacute" unicode="&#x15a;" horiz-adv-x="648" 
d="M614 503h-95q2 80 -41 114t-123 34q-61 0 -113 -30t-52 -87q0 -48 30 -73.5t86 -41.5l96 -26q80 -22 126 -64t46 -129q0 -53 -25 -96t-66 -68.5t-89 -39t-98 -13.5q-136 0 -213 62.5t-68 188.5h95q-4 -92 46.5 -131.5t143.5 -39.5q74 0 126.5 35t52.5 102q0 50 -33 75.5
t-94 42.5l-97 26q-160 45 -160 180q0 97 78 152t182 55q54 0 100.5 -13.5t83 -40.5t57 -71.5t18.5 -102.5zM332 779l93 143h113l-136 -143h-70z" />
    <glyph glyph-name="sacute" unicode="&#x15b;" horiz-adv-x="481" 
d="M440 365h-85q2 42 -28.5 65.5t-78.5 23.5q-110 0 -110 -66q0 -16 8 -28t31.5 -25t34 -17.5t47.5 -18.5l15 -6q32 -14 51 -24.5t41.5 -28t33.5 -40.5t11 -52q0 -80 -63 -120t-148 -40q-209 0 -209 175h85q-3 -53 34.5 -76.5t97.5 -23.5q48 0 83 19t35 60q0 15 -6.5 26.5
t-23 22t-28.5 16.5t-39 17t-39 16q-64 25 -100.5 56t-36.5 84q0 68 57.5 108.5t134.5 40.5q81 0 138 -40t57 -124zM226 589l93 143h113l-136 -143h-70z" />
    <glyph glyph-name="Scircumflex" unicode="&#x15c;" horiz-adv-x="648" 
d="M614 503h-95q2 80 -41 114t-123 34q-61 0 -113 -30t-52 -87q0 -48 30 -73.5t86 -41.5l96 -26q80 -22 126 -64t46 -129q0 -53 -25 -96t-66 -68.5t-89 -39t-98 -13.5q-136 0 -213 62.5t-68 188.5h95q-4 -92 46.5 -131.5t143.5 -39.5q74 0 126.5 35t52.5 102q0 50 -33 75.5
t-94 42.5l-97 26q-160 45 -160 180q0 97 78 152t182 55q54 0 100.5 -13.5t83 -40.5t57 -71.5t18.5 -102.5zM241 779l133 143h86l75 -143h-74l-51 93l-87 -93h-82z" />
    <glyph glyph-name="scircumflex" unicode="&#x15d;" horiz-adv-x="481" 
d="M440 365h-85q2 42 -28.5 65.5t-78.5 23.5q-110 0 -110 -66q0 -16 8 -28t31.5 -25t34 -17.5t47.5 -18.5l15 -6q32 -14 51 -24.5t41.5 -28t33.5 -40.5t11 -52q0 -80 -63 -120t-148 -40q-209 0 -209 175h85q-3 -53 34.5 -76.5t97.5 -23.5q48 0 83 19t35 60q0 15 -6.5 26.5
t-23 22t-28.5 16.5t-39 17t-39 16q-64 25 -100.5 56t-36.5 84q0 68 57.5 108.5t134.5 40.5q81 0 138 -40t57 -124zM128 589l133 143h86l75 -143h-74l-51 93l-87 -93h-82z" />
    <glyph glyph-name="Scedilla" unicode="&#x15e;" horiz-adv-x="648" 
d="M142 -188l18 43q45 -15 64 -15q60 0 60 30q0 31 -46 31q-27 0 -42 -8l-19 30l56 64q-38 6 -56 11q-81 22 -125 82t-37 154h95q-4 -92 46.5 -131.5t143.5 -39.5q74 0 126.5 35t52.5 102q0 50 -33 75.5t-94 42.5l-97 26q-160 45 -160 180q0 97 78 152t182 55
q54 0 100.5 -13.5t83 -40.5t57 -71.5t18.5 -102.5h-95q2 80 -41 114t-123 34q-61 0 -113 -30t-52 -87q0 -48 30 -73.5t86 -41.5l96 -26q80 -22 126 -64t46 -129q0 -53 -25 -96t-66 -68.5t-89 -39t-98 -13.5h-19l-35 -37h2q9 4 26 4q36 0 62.5 -18t26.5 -55
q0 -42 -36.5 -64.5t-82.5 -22.5q-50 0 -98 22z" />
    <glyph glyph-name="Scedilla" unicode="&#xf6c1;" horiz-adv-x="648" 
d="M142 -188l18 43q45 -15 64 -15q60 0 60 30q0 31 -46 31q-27 0 -42 -8l-19 30l56 64q-38 6 -56 11q-81 22 -125 82t-37 154h95q-4 -92 46.5 -131.5t143.5 -39.5q74 0 126.5 35t52.5 102q0 50 -33 75.5t-94 42.5l-97 26q-160 45 -160 180q0 97 78 152t182 55
q54 0 100.5 -13.5t83 -40.5t57 -71.5t18.5 -102.5h-95q2 80 -41 114t-123 34q-61 0 -113 -30t-52 -87q0 -48 30 -73.5t86 -41.5l96 -26q80 -22 126 -64t46 -129q0 -53 -25 -96t-66 -68.5t-89 -39t-98 -13.5h-19l-35 -37h2q9 4 26 4q36 0 62.5 -18t26.5 -55
q0 -42 -36.5 -64.5t-82.5 -22.5q-50 0 -98 22z" />
    <glyph glyph-name="scedilla" unicode="&#x15f;" horiz-adv-x="481" 
d="M51 -188l18 43q45 -15 64 -15q60 0 60 30q0 31 -46 31q-27 0 -42 -8l-19 30l60 69q-12 1 -29 5q-126 30 -126 166h85q-3 -53 34.5 -76.5t97.5 -23.5q48 0 83 19t35 60q0 15 -6.5 26.5t-23 22t-28.5 16.5t-39 17t-39 16q-64 25 -100.5 56t-36.5 84q0 68 57.5 108.5
t134.5 40.5q81 0 138 -40t57 -124h-85q2 42 -28.5 65.5t-78.5 23.5q-110 0 -110 -66q0 -16 8 -28t31.5 -25t34 -17.5t47.5 -18.5l15 -6q32 -14 51 -24.5t41.5 -28t33.5 -40.5t11 -52q0 -80 -63 -120t-148 -40h-10l-39 -42h2q9 4 26 4q36 0 62.5 -18t26.5 -55
q0 -42 -36.5 -64.5t-82.5 -22.5q-50 0 -98 22z" />
    <glyph glyph-name="scedilla" unicode="&#xf6c2;" horiz-adv-x="481" 
d="M51 -188l18 43q45 -15 64 -15q60 0 60 30q0 31 -46 31q-27 0 -42 -8l-19 30l60 69q-12 1 -29 5q-126 30 -126 166h85q-3 -53 34.5 -76.5t97.5 -23.5q48 0 83 19t35 60q0 15 -6.5 26.5t-23 22t-28.5 16.5t-39 17t-39 16q-64 25 -100.5 56t-36.5 84q0 68 57.5 108.5
t134.5 40.5q81 0 138 -40t57 -124h-85q2 42 -28.5 65.5t-78.5 23.5q-110 0 -110 -66q0 -16 8 -28t31.5 -25t34 -17.5t47.5 -18.5l15 -6q32 -14 51 -24.5t41.5 -28t33.5 -40.5t11 -52q0 -80 -63 -120t-148 -40h-10l-39 -42h2q9 4 26 4q36 0 62.5 -18t26.5 -55
q0 -42 -36.5 -64.5t-82.5 -22.5q-50 0 -98 22z" />
    <glyph glyph-name="Scaron" unicode="&#x160;" horiz-adv-x="648" 
d="M614 503h-95q2 80 -41 114t-123 34q-61 0 -113 -30t-52 -87q0 -48 30 -73.5t86 -41.5l96 -26q80 -22 126 -64t46 -129q0 -53 -25 -96t-66 -68.5t-89 -39t-98 -13.5q-136 0 -213 62.5t-68 188.5h95q-4 -92 46.5 -131.5t143.5 -39.5q74 0 126.5 35t52.5 102q0 50 -33 75.5
t-94 42.5l-97 26q-160 45 -160 180q0 97 78 152t182 55q54 0 100.5 -13.5t83 -40.5t57 -71.5t18.5 -102.5zM562 922l-135 -143h-86l-77 143h76l51 -93l93 93h78z" />
    <glyph glyph-name="scaron" unicode="&#x161;" horiz-adv-x="481" 
d="M440 365h-85q2 42 -28.5 65.5t-78.5 23.5q-110 0 -110 -66q0 -16 8 -28t31.5 -25t34 -17.5t47.5 -18.5l15 -6q32 -14 51 -24.5t41.5 -28t33.5 -40.5t11 -52q0 -80 -63 -120t-148 -40q-209 0 -209 175h85q-3 -53 34.5 -76.5t97.5 -23.5q48 0 83 19t35 60q0 15 -6.5 26.5
t-23 22t-28.5 16.5t-39 17t-39 16q-64 25 -100.5 56t-36.5 84q0 68 57.5 108.5t134.5 40.5q81 0 138 -40t57 -124zM446 732l-135 -143h-86l-77 143h76l51 -93l93 93h78z" />
    <glyph glyph-name="Tcommaaccent" unicode="&#x162;" horiz-adv-x="574" 
d="M653 714l-18 -80h-240l-134 -634h-95l134 634h-240l17 80h576zM131 -138l19 88h111q-14 -79 -18 -91q-5 -17 -13 -29q-23 -39 -101 -40l8 35q21 5 30.5 12t15.5 25h-52z" />
    <glyph glyph-name="tcommaaccent" unicode="&#x163;" horiz-adv-x="315" 
d="M253 670l-32 -153h103l-16 -75h-103l-64 -304q0 -2 -1.5 -14.5t-1.5 -19.5q0 -35 51 -35q20 0 49 9l-15 -78q-30 -6 -60 -6q-116 0 -116 84q0 16 5 43l68 321h-87l16 75h87l32 153h85zM45 -138l19 88h111q-14 -79 -18 -91q-5 -17 -13 -29q-23 -39 -101 -40l8 35
q21 5 30.5 12t15.5 25h-52z" />
    <glyph glyph-name="Tcaron" unicode="&#x164;" horiz-adv-x="574" 
d="M653 714l-18 -80h-240l-134 -634h-95l134 634h-240l17 80h576zM550 922l-135 -143h-86l-77 143h76l51 -93l93 93h78z" />
    <glyph glyph-name="tcaron" unicode="&#x165;" horiz-adv-x="361" 
d="M321 571l53 143h113l-100 -143h-66zM253 670l-32 -153h103l-16 -75h-103l-64 -304q0 -2 -1.5 -14.5t-1.5 -19.5q0 -35 51 -35q20 0 49 9l-15 -78q-30 -6 -60 -6q-116 0 -116 84q0 16 5 43l68 321h-87l16 75h87l32 153h85z" />
    <glyph glyph-name="Tbar" unicode="&#x166;" horiz-adv-x="574" 
d="M90 432l12 55h167l31 147h-240l17 80h576l-18 -80h-240l-31 -147h170l-11 -55h-171l-91 -432h-95l91 432h-167z" />
    <glyph glyph-name="tbar" unicode="&#x167;" horiz-adv-x="315" 
d="M-7 291l12 55h94l21 96h-87l16 75h87l32 153h85l-32 -153h103l-16 -75h-103l-21 -96h115l-11 -55h-115l-32 -153q0 -2 -1.5 -14.5t-1.5 -19.5q0 -35 51 -35q20 0 49 9l-15 -78q-30 -6 -60 -6q-116 0 -116 84q0 16 5 43l36 170h-95z" />
    <glyph glyph-name="Utilde" unicode="&#x168;" horiz-adv-x="722" 
d="M728 714l-89 -428q-23 -106 -36 -137q-34 -84 -108 -125t-170 -41q-158 0 -224 80t-35 231l89 420h95l-94 -444q-24 -103 20 -155t149 -52q46 0 80 11t55.5 28t38 48.5t25.5 60t19 75.5l90 428h95zM335 798h-52q10 30 20 50.5t31 39.5t48 19q25 0 77 -25q5 -2 14.5 -6.5
t14 -6.5t13 -5t11.5 -3h11q15 0 25 6.5t14 12.5t12 22h51q-15 -49 -38 -79t-64 -30q-23 0 -75 24t-66 22q-33 0 -47 -41z" />
    <glyph glyph-name="utilde" unicode="&#x169;" 
d="M520 517l-109 -517h-82l16 78h-2q-66 -90 -184 -90q-73 0 -108.5 32t-35.5 101q0 34 15 101l63 295h85l-66 -302q-12 -46 -12 -80q0 -35 25 -53.5t65 -18.5q68 0 119 49.5t66 118.5l60 286h85zM216 608h-52q10 30 20 50.5t31 39.5t48 19q25 0 77 -25q5 -2 14.5 -6.5
t14 -6.5t13 -5t11.5 -3h11q15 0 25 6.5t14 12.5t12 22h51q-15 -49 -38 -79t-64 -30q-23 0 -75 24t-66 22q-33 0 -47 -41z" />
    <glyph glyph-name="Umacron" unicode="&#x16a;" horiz-adv-x="722" 
d="M728 714l-89 -428q-23 -106 -36 -137q-34 -84 -108 -125t-170 -41q-158 0 -224 80t-35 231l89 420h95l-94 -444q-24 -103 20 -155t149 -52q46 0 80 11t55.5 28t38 48.5t25.5 60t19 75.5l90 428h95zM312 817l12 55h269l-11 -55h-270z" />
    <glyph glyph-name="umacron" unicode="&#x16b;" 
d="M520 517l-109 -517h-82l16 78h-2q-66 -90 -184 -90q-73 0 -108.5 32t-35.5 101q0 34 15 101l63 295h85l-66 -302q-12 -46 -12 -80q0 -35 25 -53.5t65 -18.5q68 0 119 49.5t66 118.5l60 286h85zM184 627l12 55h269l-11 -55h-270z" />
    <glyph glyph-name="Ubreve" unicode="&#x16c;" horiz-adv-x="722" 
d="M728 714l-89 -428q-23 -106 -36 -137q-34 -84 -108 -125t-170 -41q-158 0 -224 80t-35 231l89 420h95l-94 -444q-24 -103 20 -155t149 -52q46 0 80 11t55.5 28t38 48.5t25.5 60t19 75.5l90 428h95zM311 920h45q1 -84 94 -84q49 0 76 19.5t41 64.5h45q-9 -66 -54 -102.5
t-112 -36.5t-102 35.5t-33 103.5z" />
    <glyph glyph-name="ubreve" unicode="&#x16d;" 
d="M520 517l-109 -517h-82l16 78h-2q-66 -90 -184 -90q-73 0 -108.5 32t-35.5 101q0 34 15 101l63 295h85l-66 -302q-12 -46 -12 -80q0 -35 25 -53.5t65 -18.5q68 0 119 49.5t66 118.5l60 286h85zM182 730h45q1 -84 94 -84q49 0 76 19.5t41 64.5h45q-9 -66 -54 -102.5
t-112 -36.5t-102 35.5t-33 103.5z" />
    <glyph glyph-name="Uring" unicode="&#x16e;" horiz-adv-x="722" 
d="M728 714l-89 -428q-23 -106 -36 -137q-34 -84 -108 -125t-170 -41q-158 0 -224 80t-35 231l89 420h95l-94 -444q-24 -103 20 -155t149 -52q46 0 80 11t55.5 28t38 48.5t25.5 60t19 75.5l90 428h95zM334 860q0 46 33.5 79.5t79.5 33.5t79.5 -33.5t33.5 -79.5t-33.5 -79.5
t-79.5 -33.5t-79.5 33.5t-33.5 79.5zM379 860q0 -29 19.5 -48.5t48.5 -19.5t48.5 19.5t19.5 48.5t-19.5 48.5t-48.5 19.5t-48.5 -19.5t-19.5 -48.5z" />
    <glyph glyph-name="uring" unicode="&#x16f;" 
d="M520 517l-109 -517h-82l16 78h-2q-66 -90 -184 -90q-73 0 -108.5 32t-35.5 101q0 34 15 101l63 295h85l-66 -302q-12 -46 -12 -80q0 -35 25 -53.5t65 -18.5q68 0 119 49.5t66 118.5l60 286h85zM212 680q0 46 33.5 79.5t79.5 33.5t79.5 -33.5t33.5 -79.5t-33.5 -79.5
t-79.5 -33.5t-79.5 33.5t-33.5 79.5zM257 680q0 -29 19.5 -48.5t48.5 -19.5t48.5 19.5t19.5 48.5t-19.5 48.5t-48.5 19.5t-48.5 -19.5t-19.5 -48.5z" />
    <glyph glyph-name="Uhungarumlaut" unicode="&#x170;" horiz-adv-x="722" 
d="M728 714l-89 -428q-23 -106 -36 -137q-34 -84 -108 -125t-170 -41q-158 0 -224 80t-35 231l89 420h95l-94 -444q-24 -103 20 -155t149 -52q46 0 80 11t55.5 28t38 48.5t25.5 60t19 75.5l90 428h95zM494 779l93 143h113l-136 -143h-70zM328 779l93 143h113l-136 -143h-70z
" />
    <glyph glyph-name="uhungarumlaut" unicode="&#x171;" 
d="M520 517l-109 -517h-82l16 78h-2q-66 -90 -184 -90q-73 0 -108.5 32t-35.5 101q0 34 15 101l63 295h85l-66 -302q-12 -46 -12 -80q0 -35 25 -53.5t65 -18.5q68 0 119 49.5t66 118.5l60 286h85zM361 589l93 143h113l-136 -143h-70zM195 589l93 143h113l-136 -143h-70z" />
    <glyph glyph-name="Uogonek" unicode="&#x172;" horiz-adv-x="722" 
d="M728 714l-89 -428q-23 -106 -36 -137q-34 -84 -108 -125t-170 -41q-1 -1 -4 -3t-4 -3q-30 -21 -59 -50.5t-29 -49.5q0 -37 37 -37q40 0 72 24l37 -12q-29 -35 -57 -48.5t-68 -13.5q-89 0 -89 71q0 50 78 109q8 5 24 17q-110 14 -162 76q-66 81 -35 231l89 420h95
l-94 -444q-24 -103 20 -155t149 -52q46 0 80 11t55.5 28t38 48.5t25.5 60t19 75.5l90 428h95z" />
    <glyph glyph-name="uogonek" unicode="&#x173;" 
d="M411 0h-18q-41 -28 -67 -51q-50 -44 -50 -72q0 -37 35 -37q38 0 68 24l36 -12q-27 -35 -54 -48.5t-65 -13.5q-85 0 -85 71q0 63 118 139l16 78h-2q-66 -90 -184 -90q-73 0 -108.5 32t-35.5 101q0 34 15 101l63 295h85l-66 -302q-12 -46 -12 -80q0 -35 25 -53.5t65 -18.5
q68 0 119 49.5t66 118.5l60 286h85z" />
    <glyph glyph-name="Wcircumflex" unicode="&#x174;" horiz-adv-x="926" 
d="M983 714l-328 -714h-99l-45 616h-2l-282 -616h-102l-45 714h94l25 -601h2l274 601h108l40 -603h2l260 603h98zM392 779l133 143h86l75 -143h-74l-51 93l-87 -93h-82z" />
    <glyph glyph-name="wcircumflex" unicode="&#x175;" horiz-adv-x="759" 
d="M762 517l-267 -517h-90l-26 402h-2l-185 -402h-90l-61 517h90l32 -411h2l186 411h96l25 -411h2l196 411h92zM266 589l133 143h86l75 -143h-74l-51 93l-87 -93h-82z" />
    <glyph glyph-name="Ycircumflex" unicode="&#x176;" horiz-adv-x="611" 
d="M193 0l61 287l-188 427h101l146 -346l271 346h110l-346 -427l-62 -287h-93zM241 779l133 143h86l75 -143h-74l-51 93l-87 -93h-82z" />
    <glyph glyph-name="ycircumflex" unicode="&#x177;" horiz-adv-x="481" 
d="M505 517l-342 -605q-21 -32 -33 -48.5t-32.5 -36.5t-45 -28.5t-56.5 -8.5q-33 0 -59 13l15 69q23 -14 49 -14q46 0 80 56l52 86l-91 517h91l60 -411h2l217 411h93zM139 589l133 143h86l75 -143h-74l-51 93l-87 -93h-82z" />
    <glyph glyph-name="Ydieresis" unicode="&#x178;" horiz-adv-x="611" 
d="M193 0l61 287l-188 427h101l146 -346l271 346h110l-346 -427l-62 -287h-93zM262 792l21 104h89l-21 -104h-89zM425 792l21 104h89l-21 -104h-89z" />
    <glyph glyph-name="Zacute" unicode="&#x179;" horiz-adv-x="611" 
d="M-38 0l17 79l536 555h-409l20 80h521l-17 -81l-540 -553h456l-17 -80h-567zM337 779l93 143h113l-136 -143h-70z" />
    <glyph glyph-name="zacute" unicode="&#x17a;" horiz-adv-x="444" 
d="M-53 0l12 64l360 378h-278l15 75h393l-13 -61l-363 -381h309l-14 -75h-421zM214 589l93 143h113l-136 -143h-70z" />
    <glyph glyph-name="Zdotaccent" unicode="&#x17b;" horiz-adv-x="611" 
d="M-38 0l17 79l536 555h-409l20 80h521l-17 -81l-540 -553h456l-17 -80h-567zM338 792l21 104h89l-21 -104h-89z" />
    <glyph glyph-name="zdotaccent" unicode="&#x17c;" horiz-adv-x="444" 
d="M-53 0l12 64l360 378h-278l15 75h393l-13 -61l-363 -381h309l-14 -75h-421zM209 602l21 104h89l-21 -104h-89z" />
    <glyph glyph-name="Zcaron" unicode="&#x17d;" horiz-adv-x="611" 
d="M-38 0l17 79l536 555h-409l20 80h521l-17 -81l-540 -553h456l-17 -80h-567zM564 922l-135 -143h-86l-77 143h76l51 -93l93 93h78z" />
    <glyph glyph-name="zcaron" unicode="&#x17e;" horiz-adv-x="444" 
d="M-53 0l12 64l360 378h-278l15 75h393l-13 -61l-363 -381h309l-14 -75h-421zM430 732l-135 -143h-86l-77 143h76l51 -93l93 93h78z" />
    <glyph glyph-name="florin" unicode="&#x192;" 
d="M150 449h95l46 164q28 101 156 101q23 0 65 -8l-20 -73q-14 6 -40 6q-45 0 -62 -20.5t-34 -82.5l-24 -87h111l-18 -68h-111l-118 -415q-18 -67 -55 -99t-104 -32q-24 0 -56 5l21 74q19 -5 38 -4q57 8 77 84l110 387h-95z" />
    <glyph glyph-name="Scommaaccent" unicode="&#x218;" horiz-adv-x="648" 
d="M614 503h-95q2 80 -41 114t-123 34q-61 0 -113 -30t-52 -87q0 -48 30 -73.5t86 -41.5l96 -26q80 -22 126 -64t46 -129q0 -53 -25 -96t-66 -68.5t-89 -39t-98 -13.5q-136 0 -213 62.5t-68 188.5h95q-4 -92 46.5 -131.5t143.5 -39.5q74 0 126.5 35t52.5 102q0 50 -33 75.5
t-94 42.5l-97 26q-160 45 -160 180q0 97 78 152t182 55q54 0 100.5 -13.5t83 -40.5t57 -71.5t18.5 -102.5zM195 -138l19 88h111q-14 -79 -18 -91q-5 -17 -13 -29q-23 -39 -101 -40l8 35q21 5 30.5 12t15.5 25h-52z" />
    <glyph glyph-name="scommaaccent" unicode="&#x219;" horiz-adv-x="481" 
d="M440 365h-85q2 42 -28.5 65.5t-78.5 23.5q-110 0 -110 -66q0 -16 8 -28t31.5 -25t34 -17.5t47.5 -18.5l15 -6q32 -14 51 -24.5t41.5 -28t33.5 -40.5t11 -52q0 -80 -63 -120t-148 -40q-209 0 -209 175h85q-3 -53 34.5 -76.5t97.5 -23.5q48 0 83 19t35 60q0 15 -6.5 26.5
t-23 22t-28.5 16.5t-39 17t-39 16q-64 25 -100.5 56t-36.5 84q0 68 57.5 108.5t134.5 40.5q81 0 138 -40t57 -124zM107 -138l19 88h111q-14 -79 -18 -91q-5 -17 -13 -29q-23 -39 -101 -40l8 35q21 5 30.5 12t15.5 25h-52z" />
    <glyph glyph-name="uni021A" unicode="&#x21a;" horiz-adv-x="574" 
d="M653 714l-18 -80h-240l-134 -634h-95l134 634h-240l17 80h576zM131 -138l19 88h111q-14 -79 -18 -91q-5 -17 -13 -29q-23 -39 -101 -40l8 35q21 5 30.5 12t15.5 25h-52z" />
    <glyph glyph-name="uni021B" unicode="&#x21b;" horiz-adv-x="315" 
d="M253 670l-32 -153h103l-16 -75h-103l-64 -304q0 -2 -1.5 -14.5t-1.5 -19.5q0 -35 51 -35q20 0 49 9l-15 -78q-30 -6 -60 -6q-116 0 -116 84q0 16 5 43l68 321h-87l16 75h87l32 153h85zM45 -138l19 88h111q-14 -79 -18 -91q-5 -17 -13 -29q-23 -39 -101 -40l8 35
q21 5 30.5 12t15.5 25h-52z" />
    <glyph glyph-name="circumflex" unicode="&#x2c6;" horiz-adv-x="222" 
d="M70 589l133 143h86l75 -143h-74l-51 93l-87 -93h-82z" />
    <glyph glyph-name="caron" unicode="&#x2c7;" horiz-adv-x="222" 
d="M403 732l-135 -143h-86l-77 143h76l51 -93l93 93h78z" />
    <glyph glyph-name="uni02C9" unicode="&#x2c9;" horiz-adv-x="222" 
d="M92 627l12 55h269l-11 -55h-270z" />
    <glyph glyph-name="breve" unicode="&#x2d8;" horiz-adv-x="222" 
d="M94 730h45q1 -84 94 -84q49 0 76 19.5t41 64.5h45q-9 -66 -54 -102.5t-112 -36.5t-102 35.5t-33 103.5z" />
    <glyph glyph-name="dotaccent" unicode="&#x2d9;" horiz-adv-x="222" 
d="M175 602l21 104h89l-21 -104h-89z" />
    <glyph glyph-name="ring" unicode="&#x2da;" horiz-adv-x="222" 
d="M126 680q0 46 33.5 79.5t79.5 33.5t79.5 -33.5t33.5 -79.5t-33.5 -79.5t-79.5 -33.5t-79.5 33.5t-33.5 79.5zM171 680q0 -29 19.5 -48.5t48.5 -19.5t48.5 19.5t19.5 48.5t-19.5 48.5t-48.5 19.5t-48.5 -19.5t-19.5 -48.5z" />
    <glyph glyph-name="ogonek" unicode="&#x2db;" horiz-adv-x="222" 
d="M17 0h67q-40 -25 -70 -51q-53 -45 -53 -72q0 -37 37 -37q40 0 72 24l37 -12q-29 -35 -57 -48.5t-68 -13.5q-89 0 -89 71q0 64 124 139z" />
    <glyph glyph-name="tilde" unicode="&#x2dc;" horiz-adv-x="222" 
d="M115 608h-52q10 30 20 50.5t31 39.5t48 19q25 0 77 -25q5 -2 14.5 -6.5t14 -6.5t13 -5t11.5 -3h11q15 0 25 6.5t14 12.5t12 22h51q-15 -49 -38 -79t-64 -30q-23 0 -75 24t-66 22q-33 0 -47 -41z" />
    <glyph glyph-name="hungarumlaut" unicode="&#x2dd;" horiz-adv-x="222" 
d="M219 589l93 143h113l-136 -143h-70zM53 589l93 143h113l-136 -143h-70z" />
    <glyph glyph-name="uni0394" unicode="&#x394;" horiz-adv-x="674" 
d="M492 72l-99 553l-331 -553h430zM584 0h-648l430 712h83z" />
    <glyph glyph-name="uni03A9" unicode="&#x3a9;" horiz-adv-x="748" 
d="M700 452q0 -119 -69 -206t-185 -107l-16 -75l194 -1l-14 -63h-256l40 185q104 14 165 86t61 178q0 93 -56 147t-149 54q-119 0 -202 -90t-83 -209q0 -67 35.5 -113.5t100.5 -52.5l-39 -185h-249l14 63h184l17 80q-69 21 -106 78t-37 132q0 148 109.5 258t257.5 110
q123 0 203 -74t80 -195z" />
    <glyph glyph-name="uni03BC" unicode="&#x3bc;" 
d="M520 517l-109 -517h-82l16 78h-2q-31 -43 -78.5 -66.5t-93.5 -23.5q-32 0 -57.5 12t-35.5 26h-2l-47 -224h-85l149 715h85l-66 -302q-12 -46 -12 -80q0 -35 25 -53.5t65 -18.5q68 0 119 49.5t66 118.5l60 286h85z" />
    <glyph glyph-name="pi" unicode="&#x3c0;" horiz-adv-x="570" 
d="M567 479l-14 -69h-78l-60 -284q-7 -35 -7 -45q0 -23 30 -23q15 0 45 10l-12 -57q-36 -17 -70 -17q-31 0 -52 13.5t-21 43.5q0 18 9 63l63 296h-241l-87 -410h-75l87 410h-73l15 69h541z" />
    <glyph glyph-name="endash" unicode="&#x2013;" horiz-adv-x="500" 
d="M-23 238l16 80h500l-16 -80h-500z" />
    <glyph glyph-name="emdash" unicode="&#x2014;" horiz-adv-x="1000" 
d="M107 238l16 80h740l-16 -80h-740z" />
    <glyph glyph-name="quoteleft" unicode="&#x2018;" horiz-adv-x="278" 
d="M246 567l-24 -111h-111q4 18 11.5 56.5t12.5 59t16.5 50t26 46t40 30t59.5 16.5l-10 -48q-25 -4 -41.5 -20.5t-22.5 -33t-13 -45.5h56z" />
    <glyph glyph-name="quoteright" unicode="&#x2019;" horiz-adv-x="278" 
d="M138 603l24 111h111q-4 -17 -11.5 -55.5t-12 -59t-16.5 -51t-26.5 -46.5t-40 -29.5t-59.5 -16.5l10 48q24 4 39.5 19t22 30.5t13.5 41.5q1 5 2 8h-56z" />
    <glyph glyph-name="quotesinglbase" unicode="&#x201a;" horiz-adv-x="278" 
d="M-2 0l24 111h111q-4 -17 -11.5 -55.5t-12 -59t-16.5 -51t-26.5 -46.5t-40 -29.5t-59.5 -16.5l10 48q24 4 39.5 19t22 30.5t13.5 41.5q1 5 2 8h-56z" />
    <glyph glyph-name="quotedblleft" unicode="&#x201c;" horiz-adv-x="426" 
d="M224 567l-24 -111h-111q4 18 11.5 56.5t12.5 59t16.5 50t26 46t40 30t59.5 16.5l-10 -48q-25 -4 -41.5 -20.5t-22.5 -33t-13 -45.5h56zM406 567l-24 -111h-111q4 18 11.5 56.5t12.5 59t16.5 50t26 46t40 30t59.5 16.5l-10 -48q-25 -4 -41.5 -20.5t-22.5 -33t-13 -45.5h56
z" />
    <glyph glyph-name="quotedblright" unicode="&#x201d;" horiz-adv-x="426" 
d="M298 603l24 111h111q-4 -17 -11.5 -55.5t-12 -59t-16.5 -51t-26.5 -46.5t-40 -29.5t-59.5 -16.5l10 48q24 4 39.5 19t22 30.5t13.5 41.5q1 5 2 8h-56zM116 603l24 111h111q-4 -17 -11.5 -55.5t-12 -59t-16.5 -51t-26.5 -46.5t-40 -29.5t-59.5 -16.5l10 48q24 4 39.5 19
t22 30.5t13.5 41.5q1 5 2 8h-56z" />
    <glyph glyph-name="quotedblbase" unicode="&#x201e;" horiz-adv-x="426" 
d="M177 0l24 111h111q-4 -17 -11.5 -55.5t-12 -59t-16.5 -51t-26.5 -46.5t-40 -29.5t-59.5 -16.5l10 48q24 4 39.5 19t22 30.5t13.5 41.5q1 5 2 8h-56zM-5 0l24 111h111q-4 -17 -11.5 -55.5t-12 -59t-16.5 -51t-26.5 -46.5t-40 -29.5t-59.5 -16.5l10 48q24 4 39.5 19
t22 30.5t13.5 41.5q1 5 2 8h-56z" />
    <glyph glyph-name="dagger" unicode="&#x2020;" 
d="M128 -155l126 597h-191l16 75h191l42 197h85l-42 -197h191l-16 -75h-191l-126 -597h-85z" />
    <glyph glyph-name="daggerdbl" unicode="&#x2021;" 
d="M128 -155l42 197h-191l16 75h191l68 325h-191l16 75h191l42 197h85l-42 -197h191l-16 -75h-191l-68 -325h191l-16 -75h-191l-42 -197h-85z" />
    <glyph glyph-name="bullet" unicode="&#x2022;" horiz-adv-x="500" 
d="M72 357q0 74 52 126t126 52t126.5 -52t52.5 -126t-52.5 -126.5t-126.5 -52.5t-126 52.5t-52 126.5z" />
    <glyph glyph-name="ellipsis" unicode="&#x2026;" horiz-adv-x="1000" 
d="M705 0l24 111h111l-24 -111h-111zM372 0l24 111h111l-24 -111h-111zM39 0l24 111h111l-24 -111h-111z" />
    <glyph glyph-name="perthousand" unicode="&#x2030;" horiz-adv-x="1074" 
d="M441 127q0 -33 15 -58.5t43 -25.5q46 0 74.5 51t25.5 102q0 33 -15 58.5t-43 25.5q-46 0 -74.5 -51t-25.5 -102zM373 127q0 86 45.5 147t128.5 61q60 0 90 -36t30 -98q0 -86 -44 -149.5t-128 -63.5q-122 0 -122 139zM104 -28l435 753h64l-435 -753h-64zM116 501
q0 -33 15 -58.5t43 -25.5q46 0 74.5 51t25.5 102q0 33 -15 58.5t-43 25.5q-46 0 -74.5 -51t-25.5 -102zM48 501q0 86 45.5 147t128.5 61q60 0 90 -36t30 -98q0 -86 -44 -149.5t-128 -63.5q-122 0 -122 139zM791 127q0 -33 15 -58.5t43 -25.5q46 0 74.5 51t25.5 102
q0 33 -15 58.5t-43 25.5q-46 0 -74.5 -51t-25.5 -102zM723 127q0 86 45.5 147t128.5 61q60 0 90 -36t30 -98q0 -86 -44 -149.5t-128 -63.5q-122 0 -122 139z" />
    <glyph glyph-name="guilsinglleft" unicode="&#x2039;" horiz-adv-x="259" 
d="M153 114l-123 136l22 92l174 100l-21 -85l-120 -68l87 -90z" />
    <glyph glyph-name="guilsinglright" unicode="&#x203a;" horiz-adv-x="259" 
d="M92 442l123 -136l-22 -92l-174 -100l21 85l120 68l-87 90z" />
    <glyph glyph-name="fraction" unicode="&#x2044;" horiz-adv-x="167" 
d="M-166 -28l435 753h64l-435 -753h-64z" />
    <glyph glyph-name="afii61289" unicode="&#x2113;" horiz-adv-x="500" 
d="M466 617q0 -158 -245 -344q-34 -147 -34 -173q0 -29 15 -42t37 -13q41 0 100 41h2l20 -46q-73 -54 -143 -54q-51 0 -80.5 26t-29.5 74q0 25 24 134l-68 -58h-2l-23 46l108 83l55 258q18 85 61 128.5t103 43.5q44 0 72 -29.5t28 -74.5zM399 613q0 23 -11.5 38.5
t-29.5 15.5q-54 0 -75 -101l-47 -220q64 58 113.5 131.5t49.5 135.5z" />
    <glyph glyph-name="trademark" unicode="&#x2122;" horiz-adv-x="990" 
d="M926 714v-412h-68v344h-2l-135 -344h-43l-135 344h-2v-344h-68v412h105l123 -313l121 313h104zM390 714v-55h-129v-357h-68v357h-129v55h326z" />
    <glyph glyph-name="Omega" unicode="&#x2126;" horiz-adv-x="748" 
d="M700 452q0 -119 -69 -206t-185 -107l-16 -75l194 -1l-14 -63h-256l40 185q104 14 165 86t61 178q0 93 -56 147t-149 54q-119 0 -202 -90t-83 -209q0 -67 35.5 -113.5t100.5 -52.5l-39 -185h-249l14 63h184l17 80q-69 21 -106 78t-37 132q0 148 109.5 258t257.5 110
q123 0 203 -74t80 -195z" />
    <glyph glyph-name="estimated" unicode="&#x212e;" horiz-adv-x="600" 
d="M561 259h-404v-181q59 -59 145 -59q122 0 193 120l35 -21q-46 -72 -98 -103.5t-130 -31.5q-115 0 -186.5 79t-71.5 197q0 119 71 197.5t187 78.5q115 0 186.5 -77t72.5 -199zM157 295h291v145q-63 60 -147 60t-144 -60v-145z" />
    <glyph glyph-name="partialdiff" unicode="&#x2202;" horiz-adv-x="511" 
d="M369 280q-63 85 -147 85q-63 0 -98.5 -45.5t-35.5 -109.5t34.5 -113t96.5 -49q52 0 87.5 41t49 91t13.5 100zM450 362q0 -52 -5 -98.5t-20.5 -99t-40 -89.5t-67.5 -62t-100 -25q-92 0 -148 66t-56 159q0 91 54.5 152.5t144.5 61.5q96 0 161 -76q0 7 0.5 22t0.5 23
q0 44 -9 87t-27.5 83.5t-54 66t-82.5 25.5q-53 0 -114 -47l-41 50q68 60 153 60q57 0 101.5 -22t72 -57.5t45.5 -84t25 -96.5t7 -99z" />
    <glyph glyph-name="Delta" unicode="&#x2206;" horiz-adv-x="674" 
d="M492 72l-99 553l-331 -553h430zM584 0h-648l430 712h83z" />
    <glyph glyph-name="product" unicode="&#x220f;" horiz-adv-x="719" 
d="M650 -214h-78v928h-426v-928h-78v1000h582v-1000z" />
    <glyph glyph-name="summation" unicode="&#x2211;" horiz-adv-x="615" 
d="M589 -214h-564v64l322 440l-308 432v64h538v-72h-437l301 -424l-319 -432h467v-72z" />
    <glyph glyph-name="minus" unicode="&#x2212;" horiz-adv-x="600" 
d="M48 219v68h504v-68h-504z" />
    <glyph glyph-name="uni2215" unicode="&#x2215;" horiz-adv-x="167" 
d="M-166 -28l435 753h64l-435 -753h-64z" />
    <glyph glyph-name="uni2219" unicode="&#x2219;" horiz-adv-x="278" 
d="M67 253q0 27 19.5 45.5t44.5 18.5q27 0 45.5 -18.5t18.5 -45.5q0 -28 -18.5 -46t-45.5 -18q-26 0 -45 19t-19 45z" />
    <glyph glyph-name="radical" unicode="&#x221a;" horiz-adv-x="504" 
d="M485 786l-211 -1000h-75l-162 334l-47 -22l-28 60l112 52l151 -317l184 893h76z" />
    <glyph glyph-name="infinity" unicode="&#x221e;" horiz-adv-x="759" 
d="M305 251q-29 27 -45 40.5t-48 31.5t-57 18q-37 0 -58.5 -26t-21.5 -63q0 -39 22 -62.5t61 -23.5q62 0 147 85zM621 252q0 39 -22 64.5t-61 25.5q-12 0 -23.5 -3t-24 -9.5t-21.5 -11.5t-22.5 -16.5t-19 -16.5t-20 -18.5t-16.5 -15.5q32 -30 46 -42t44.5 -27.5t59.5 -15.5
q37 0 58.5 24.5t21.5 61.5zM686 255q0 -68 -40 -112.5t-107 -44.5q-87 0 -190 109q-3 -3 -23.5 -21.5t-26 -23t-23 -18.5t-28 -19t-26.5 -13t-31.5 -10.5t-32.5 -2.5q-66 0 -107 43t-41 110q0 66 39.5 111t105.5 45q38 0 77 -20t59 -38t58 -56l17.5 17.5t19 18.5t18 17
t20 17.5t19.5 14t22.5 13.5t22 9t25 7t25.5 2q66 0 107 -44t41 -111z" />
    <glyph glyph-name="integral" unicode="&#x222b;" horiz-adv-x="554" 
d="M420 730q0 -17 -12 -27.5t-30 -10.5q-14 0 -24.5 11t-17.5 21.5t-13 10.5q-8 0 -14.5 -7t-9.5 -18.5t-5 -24.5t-2.5 -29t-0.5 -27t0.5 -22.5t0.5 -12.5l1 -39v-512q0 -119 -15 -167q-27 -89 -111 -89q-26 0 -47.5 13.5t-21.5 38.5q0 15 11 25.5t26 10.5q18 0 32.5 -21
t19.5 -21q6 0 10.5 4.5t7.5 13t5 19t3 23t1.5 24t1 23.5t0 20t-0.5 15.5v8.5v22v495q0 8 -1 44.5t0 54.5t3.5 52t11 53t22 40t36 31t53.5 10t55.5 -14t24.5 -42z" />
    <glyph glyph-name="approxequal" unicode="&#x2248;" horiz-adv-x="593" 
d="M482 234h50q-7 -63 -38.5 -104t-90.5 -41q-45 0 -143 36t-129 36t-51 -23t-24 -55h-52q23 148 129 148q45 0 140 -35.5t134 -35.5q60 0 75 74zM483 415h50q-7 -63 -39 -104.5t-91 -41.5q-46 0 -143 35.5t-128 35.5q-30 0 -49.5 -22.5t-25.5 -54.5h-52q7 62 38.5 105
t90.5 43q44 0 139.5 -35.5t134.5 -35.5q60 0 75 75z" />
    <glyph glyph-name="notequal" unicode="&#x2260;" horiz-adv-x="593" 
d="M522 114h-287l-76 -146l-62 32l59 114h-141v72h178l67 127h-245v71h283l77 148l63 -32l-62 -116h146v-71h-183l-67 -127h250v-72z" />
    <glyph glyph-name="lessequal" unicode="&#x2264;" horiz-adv-x="593" 
d="M522 -30h-507v72h507v-72zM522 82l-507 184v75l507 187v-78l-408 -146l408 -145v-77z" />
    <glyph glyph-name="greaterequal" unicode="&#x2265;" horiz-adv-x="593" 
d="M522 -30h-507v72h507v-72zM522 266l-507 -184v77l408 145l-408 146v78l507 -187v-75z" />
    <glyph glyph-name="lozenge" unicode="&#x25ca;" horiz-adv-x="593" 
d="M428 356l-132 315l-131 -315l131 -315zM504 356l-172 -391h-72l-171 391l171 391h72z" />
    <glyph glyph-name="commaaccent" unicode="&#xf004;" horiz-adv-x="278" 
d="M-36 -138l19 88h111q-14 -79 -18 -91q-5 -17 -13 -29q-23 -39 -101 -40l8 35q21 5 30.5 12t15.5 25h-52z" />
    <glyph glyph-name="commaaccent" unicode="&#xf6c3;" horiz-adv-x="278" 
d="M-36 -138l19 88h111q-14 -79 -18 -91q-5 -17 -13 -29q-23 -39 -101 -40l8 35q21 5 30.5 12t15.5 25h-52z" />
    <glyph glyph-name="dotlessj" unicode="&#xf6be;" horiz-adv-x="222" 
d="M-120 -192l15 75q22 -6 33 -6q26 0 37.5 19.5t24.5 77.5l113 543h85l-130 -614q-24 -101 -122 -101q-33 0 -56 6z" />
    <glyph glyph-name="dotlessj" unicode="&#xfb0f;" horiz-adv-x="222" 
d="M-120 -192l15 75q22 -6 33 -6q26 0 37.5 19.5t24.5 77.5l113 543h85l-130 -614q-24 -101 -122 -101q-33 0 -56 6z" />
    <glyph glyph-name="uniF8FF" unicode="&#xf8ff;" horiz-adv-x="512" 
d="M222 117h56v67h-56v-67zM225 234h46q0 52 6 72q6 19 43 52q37 34 50 60t13 60q0 59 -35 95t-89 36q-56 0 -92 -34t-43 -103l50 -8q11 95 82 95q31 0 53.5 -24.5t22.5 -60.5q0 -20 -9.5 -37t-40.5 -46q-31 -31 -46 -59q-13 -25 -13 -81zM462 50h-412v617h412v-617z
M512 718h-512v-718h512v718z" />
    <glyph glyph-name="commaaccent.alt" horiz-adv-x="278" 
d="M295 714l-19 -88h-111q14 79 18 91q5 17 13 29q23 39 101 40l-8 -35q-21 -5 -30.5 -12t-15.5 -25h52z" />
    <glyph glyph-name="caron.alt" horiz-adv-x="222" 
d="M195 571l53 143h113l-100 -143h-66z" />
    <glyph glyph-name="grave.cap" horiz-adv-x="222" 
d="M217 922l67 -143h-67l-101 143h101z" />
    <glyph glyph-name="acute.cap" horiz-adv-x="222" 
d="M177 779l93 143h113l-136 -143h-70z" />
    <glyph glyph-name="circumflex.cap" horiz-adv-x="222" 
d="M70 779l133 143h86l75 -143h-74l-51 93l-87 -93h-82z" />
    <glyph glyph-name="caron.cap" horiz-adv-x="222" 
d="M403 922l-135 -143h-86l-77 143h76l51 -93l93 93h78z" />
    <glyph glyph-name="tilde.cap" horiz-adv-x="222" 
d="M115 798h-52q10 30 20 50.5t31 39.5t48 19q25 0 77 -25q5 -2 14.5 -6.5t14 -6.5t13 -5t11.5 -3h11q15 0 25 6.5t14 12.5t12 22h51q-15 -49 -38 -79t-64 -30q-23 0 -75 24t-66 22q-33 0 -47 -41z" />
    <glyph glyph-name="dieresis.cap" horiz-adv-x="222" 
d="M115 792l21 104h89l-21 -104h-89zM278 792l21 104h89l-21 -104h-89z" />
    <glyph glyph-name="macron.cap" horiz-adv-x="222" 
d="M92 817l12 55h269l-11 -55h-270z" />
    <glyph glyph-name="breve.cap" horiz-adv-x="222" 
d="M94 920h45q1 -84 94 -84q49 0 76 19.5t41 64.5h45q-9 -66 -54 -102.5t-112 -36.5t-102 35.5t-33 103.5z" />
    <glyph glyph-name="ring.cap" horiz-adv-x="222" 
d="M126 860q0 46 33.5 79.5t79.5 33.5t79.5 -33.5t33.5 -79.5t-33.5 -79.5t-79.5 -33.5t-79.5 33.5t-33.5 79.5zM171 860q0 -29 19.5 -48.5t48.5 -19.5t48.5 19.5t19.5 48.5t-19.5 48.5t-48.5 19.5t-48.5 -19.5t-19.5 -48.5z" />
    <glyph glyph-name="hungarumlaut.cap" horiz-adv-x="222" 
d="M219 779l93 143h113l-136 -143h-70zM53 779l93 143h113l-136 -143h-70z" />
    <glyph glyph-name="dotaccent.cap" horiz-adv-x="222" 
d="M175 792l21 104h89l-21 -104h-89z" />
  </font>
</defs>
</svg>
